<?xml version="1.0" standalone="no"?>
<!DOCTYPE svg PUBLIC "-//W3C//DTD SVG 1.1//EN" "http://www.w3.org/Graphics/SVG/1.1/DTD/svg11.dtd" >
<svg>
<metadata>
Created by FontForge 20110222 at Fri Jun 13 05:10:30 2014
 By Orthosie Webhosting
Copyright (c) 1987 Adobe Systems Incorporated. All rights reserved.Lucida is a registered trademark of Bigelow &#38; Holmes.
</metadata>
<defs>
<font id="LucidaSans" horiz-adv-x="633" >
  <font-face 
    font-family="LucidaSans"
    font-weight="400"
    font-stretch="normal"
    units-per-em="1000"
    panose-1="2 0 5 3 0 0 0 0 0 0"
    ascent="800"
    descent="-200"
    x-height="530"
    cap-height="723"
    bbox="-293 -205 1006 976"
    underline-thickness="60"
    underline-position="0"
    unicode-range="U+000D-FB02"
  />
<missing-glyph horiz-adv-x="800" 
d="M50 0v800h700v-800h-700zM700 50v700h-600v-700h600z" />
    <glyph glyph-name=".notdef" horiz-adv-x="800" 
d="M50 0v800h700v-800h-700zM700 50v700h-600v-700h600z" />
    <glyph glyph-name=".notdef" horiz-adv-x="800" 
d="M50 0v800h700v-800h-700zM700 50v700h-600v-700h600z" />
    <glyph glyph-name=".notdef" horiz-adv-x="800" 
d="M50 0v800h700v-800h-700zM700 50v700h-600v-700h600z" />
    <glyph glyph-name=".notdef" horiz-adv-x="800" 
d="M50 0v800h700v-800h-700zM700 50v700h-600v-700h600z" />
    <glyph glyph-name=".notdef" horiz-adv-x="800" 
d="M50 0v800h700v-800h-700zM700 50v700h-600v-700h600z" />
    <glyph glyph-name=".notdef" horiz-adv-x="800" 
d="M50 0v800h700v-800h-700zM700 50v700h-600v-700h600z" />
    <glyph glyph-name=".notdef" horiz-adv-x="800" 
d="M50 0v800h700v-800h-700zM700 50v700h-600v-700h600z" />
    <glyph glyph-name=".notdef" horiz-adv-x="800" 
d="M50 0v800h700v-800h-700zM700 50v700h-600v-700h600z" />
    <glyph glyph-name=".notdef" horiz-adv-x="800" 
d="M50 0v800h700v-800h-700zM700 50v700h-600v-700h600z" />
    <glyph glyph-name=".notdef" horiz-adv-x="800" 
d="M50 0v800h700v-800h-700zM700 50v700h-600v-700h600z" />
    <glyph glyph-name=".notdef" horiz-adv-x="800" 
d="M50 0v800h700v-800h-700zM700 50v700h-600v-700h600z" />
    <glyph glyph-name=".notdef" horiz-adv-x="800" 
d="M50 0v800h700v-800h-700zM700 50v700h-600v-700h600z" />
    <glyph glyph-name=".notdef" horiz-adv-x="800" 
d="M50 0v800h700v-800h-700zM700 50v700h-600v-700h600z" />
    <glyph glyph-name=".notdef" horiz-adv-x="800" 
d="M50 0v800h700v-800h-700zM700 50v700h-600v-700h600z" />
    <glyph glyph-name=".notdef" horiz-adv-x="800" 
d="M50 0v800h700v-800h-700zM700 50v700h-600v-700h600z" />
    <glyph glyph-name=".notdef" horiz-adv-x="800" 
d="M50 0v800h700v-800h-700zM700 50v700h-600v-700h600z" />
    <glyph glyph-name=".notdef" horiz-adv-x="800" 
d="M50 0v800h700v-800h-700zM700 50v700h-600v-700h600z" />
    <glyph glyph-name=".notdef" horiz-adv-x="800" 
d="M50 0v800h700v-800h-700zM700 50v700h-600v-700h600z" />
    <glyph glyph-name=".notdef" horiz-adv-x="800" 
d="M50 0v800h700v-800h-700zM700 50v700h-600v-700h600z" />
    <glyph glyph-name=".notdef" horiz-adv-x="800" 
d="M50 0v800h700v-800h-700zM700 50v700h-600v-700h600z" />
    <glyph glyph-name=".notdef" unicode="&#xa;" horiz-adv-x="800" 
d="M50 0v800h700v-800h-700zM700 50v700h-600v-700h600z" />
    <glyph glyph-name=".notdef" horiz-adv-x="800" 
d="M50 0v800h700v-800h-700zM700 50v700h-600v-700h600z" />
    <glyph glyph-name=".notdef" horiz-adv-x="800" 
d="M50 0v800h700v-800h-700zM700 50v700h-600v-700h600z" />
    <glyph glyph-name=".notdef" horiz-adv-x="800" 
d="M50 0v800h700v-800h-700zM700 50v700h-600v-700h600z" />
    <glyph glyph-name=".notdef" horiz-adv-x="800" 
d="M50 0v800h700v-800h-700zM700 50v700h-600v-700h600z" />
    <glyph glyph-name=".notdef" horiz-adv-x="800" 
d="M50 0v800h700v-800h-700zM700 50v700h-600v-700h600z" />
    <glyph glyph-name=".notdef" horiz-adv-x="800" 
d="M50 0v800h700v-800h-700zM700 50v700h-600v-700h600z" />
    <glyph glyph-name=".notdef" horiz-adv-x="800" 
d="M50 0v800h700v-800h-700zM700 50v700h-600v-700h600z" />
    <glyph glyph-name="uni001D" horiz-adv-x="0" 
 />
    <glyph glyph-name="uni001D" horiz-adv-x="0" 
 />
    <glyph glyph-name="uni001D" horiz-adv-x="0" 
 />
    <glyph glyph-name="uni000D" unicode="&#xd;" horiz-adv-x="316" 
 />
    <glyph glyph-name="space" unicode=" " horiz-adv-x="316" 
 />
    <glyph glyph-name="space" unicode="&#x9;" horiz-adv-x="316" 
 />
    <glyph glyph-name="exclam" unicode="!" horiz-adv-x="205" 
d="M54 96h96v-96h-96v96zM54 566v157h96v-157l-12 -373h-72z" />
    <glyph glyph-name="quotedbl" unicode="&#x22;" horiz-adv-x="373" 
d="M54 771h96l-12 -241h-72zM223 771h96l-12 -241h-72z" />
    <glyph glyph-name="numbersign" unicode="#" 
d="M154 217h-147l12 60h150l42 169h-158l12 60h161l54 217h62l-54 -217h129l54 217h62l-54 -217h146l-12 -60h-149l-42 -169h158l-12 -60h-161l-55 -217h-62l55 217h-129l-54 -217h-63zM360 277l42 169h-129l-42 -169h129z" />
    <glyph glyph-name="dollar" unicode="$" 
d="M303 0q-48 0 -94 10t-99 30v83q56 -25 100.5 -38t92.5 -13v259q-82 49 -126.5 96.5t-44.5 121.5q0 72 50 123t121 51v60h48v-60q32 0 65 -6t92 -27v-79q-52 23 -86 34.5t-71 11.5v-257q45 -29 90 -57q81 -57 81 -143q0 -76 -45.5 -131.5t-125.5 -68.5v-60h-48v60zM351 78
q42 11 64.5 40.5t22.5 70.5q0 46 -26 68.5t-61 45.5v-225zM303 654q-38 -10 -62.5 -37.5t-24.5 -66.5q0 -40 22.5 -66.5t64.5 -52.5v223z" />
    <glyph glyph-name="percent" unicode="%" horiz-adv-x="669" 
d="M6 543q0 78 39 129t115 51q75 0 114.5 -51t39.5 -129q0 -79 -39 -130t-115 -51q-75 0 -114.5 52t-39.5 129zM242 543q0 50 -19 91t-63 41q-43 0 -62.5 -42t-19.5 -90q0 -50 19 -91.5t63 -41.5q43 0 62.5 42t19.5 91zM582 741h75l-570 -759h-75zM355 181q0 78 39 129
t115 51q75 0 114.5 -51t39.5 -129q0 -79 -39 -130t-115 -51q-75 0 -114.5 52t-39.5 129zM591 181q0 50 -19 91t-63 41q-43 0 -62.5 -42t-19.5 -90q0 -50 19 -91.5t63 -41.5q43 0 62.5 42t19.5 91z" />
    <glyph glyph-name="ampersand" unicode="&#x26;" horiz-adv-x="697" 
d="M410 593q0 36 -21 56t-56 20q-34 0 -53.5 -21.5t-19.5 -55.5q0 -29 12.5 -60.5t33.5 -64.5q45 19 74.5 50.5t29.5 75.5zM483 43q-37 -30 -85.5 -45.5t-99.5 -15.5q-142 0 -201.5 77.5t-59.5 152.5q0 85 47 146t128 83q-22 40 -35 75.5t-13 69.5q0 69 51.5 112t121.5 43
q67 0 115 -39.5t48 -104.5q0 -64 -45.5 -110.5t-113.5 -77.5l170 -243q26 36 34.5 81.5t8.5 104.5v32h96q0 -80 -23 -150t-72 -126l100 -108h-137zM245 384q-53 -19 -82.5 -56t-29.5 -91q0 -58 41.5 -120.5t138.5 -62.5q71 0 127 45z" />
    <glyph glyph-name="quotesingle" unicode="'" horiz-adv-x="229" 
d="M54 771h121l-24 -265h-73z" />
    <glyph glyph-name="parenleft" unicode="(" horiz-adv-x="325" 
d="M289 -145q-105 65 -167 196t-62 262q0 132 61.5 262t167.5 196v-67q-73 -72 -103 -171.5t-30 -219.5q0 -119 29.5 -219t103.5 -173v-66z" />
    <glyph glyph-name="parenright" unicode=")" horiz-adv-x="325" 
d="M36 771q105 -65 167 -196t62 -262q0 -132 -61.5 -262t-167.5 -196v67q73 72 103 171.5t30 219.5q0 119 -29.5 219t-103.5 173v66z" />
    <glyph glyph-name="asterisk" unicode="*" horiz-adv-x="482" 
d="M428 560l-148 -32l1 8q0 9 -3.5 18t-10.5 14l139 61zM321 367l-77 130q9 0 20 8t14 17l101 -113zM103 409l101 113q3 -9 13 -17t21 -8l-77 -130zM76 629l139 -61q-14 -9 -14 -32l1 -8l-148 32zM277 723l-15 -151q-8 5 -21 5t-21 -5l-15 151h72z" />
    <glyph glyph-name="plus" unicode="+" 
d="M280 253h-253v72h253v253h72v-253h253v-72h-253v-253h-72v253z" />
    <glyph glyph-name="comma" unicode="," horiz-adv-x="316" 
d="M97 0v120h121v-92q0 -74 -26 -120.5t-95 -52.5v37q29 8 37 30.5t10 43t2 34.5h-49z" />
    <glyph glyph-name="hyphen" unicode="-" horiz-adv-x="325" 
d="M54 337h217v-72h-217v72z" />
    <glyph glyph-name="period" unicode="." horiz-adv-x="316" 
d="M97 120h121v-120h-121v120z" />
    <glyph glyph-name="slash" unicode="/" horiz-adv-x="494" 
d="M409 771h79l-403 -916h-79z" />
    <glyph glyph-name="zero" unicode="0" 
d="M316 741q131 0 192 -117.5t61 -262.5q0 -146 -60.5 -262.5t-192.5 -116.5q-131 0 -192 117.5t-61 261.5t61 262t192 118zM317 54q78 0 114 83.5t36 223.5t-36 224t-114 84t-115 -84.5t-37 -223.5t37 -223t115 -84z" />
    <glyph glyph-name="one" unicode="1" 
d="M262 663h-96v48l192 18v-729h-96v663z" />
    <glyph glyph-name="two" unicode="2" 
d="M83 84q35 84 114 161t150 145q68 76 68 146q0 63 -36 98t-99 35q-46 0 -88.5 -15.5t-90.5 -43.5v85q90 46 191 46q97 0 161 -52.5t64 -146.5q0 -88 -72 -167q-71 -66 -149 -139t-97 -152h314v-84h-430v84z" />
    <glyph glyph-name="three" unicode="3" 
d="M169 416q111 0 172.5 27.5t61.5 115.5q0 55 -38 82.5t-95 27.5q-40 0 -78 -10.5t-80 -30.5v84q37 14 81 21.5t87 7.5q94 0 156.5 -39.5t62.5 -128.5q0 -68 -41 -113t-110 -67q80 -15 127.5 -63.5t47.5 -127.5q0 -89 -58.5 -154.5t-197.5 -65.5q-40 0 -82.5 6t-82.5 17v90
q61 -24 97 -32.5t65 -8.5q72 0 114.5 38.5t42.5 107.5q0 89 -65.5 120t-148.5 31h-38v65z" />
    <glyph glyph-name="four" unicode="4" 
d="M383 277v328l-242 -328h242zM377 0v205h-326v72l326 446h90v-446h96v-72h-96v-205h-90z" />
    <glyph glyph-name="five" unicode="5" 
d="M120 83q34 -14 67 -21.5t66 -7.5q83 0 120 46t37 109q0 89 -63.5 127.5t-157.5 38.5l-57 -4v352h365v-84h-281v-191q108 0 202 -52t94 -191q0 -82 -58.5 -152.5t-202.5 -70.5q-66 0 -131 15v86z" />
    <glyph glyph-name="six" unicode="6" 
d="M326 395q-59 0 -105 -40t-46 -99q0 -81 37.5 -141.5t115.5 -60.5q69 0 102.5 48.5t33.5 121.5q0 72 -34.5 121.5t-103.5 49.5zM523 630q-45 18 -87 28.5t-81 10.5q-105 0 -145.5 -87.5t-40.5 -205.5l2 -2q65 90 177 90q95 0 153.5 -64t58.5 -160q0 -115 -68.5 -186.5
t-173.5 -71.5q-134 0 -192.5 109.5t-58.5 256.5q0 91 24.5 179t89 151t176.5 63q42 0 83 -7t83 -20v-84z" />
    <glyph glyph-name="seven" unicode="7" 
d="M108 723h464v-90q-132 -206 -199.5 -336.5t-86.5 -189.5t-25 -107h-116q0 58 31 128.5t118.5 210t185.5 294.5h-372v90z" />
    <glyph glyph-name="eight" unicode="8" 
d="M439 574q0 47 -37 71t-86 24q-47 0 -82 -24.5t-35 -70.5q0 -49 35 -79.5t105 -70.5q43 27 71.5 66t28.5 84zM169 194q0 -65 40.5 -102.5t107.5 -37.5q58 0 99.5 30.5t41.5 85.5q0 65 -47 98t-142 87q-49 -37 -74.5 -73t-25.5 -88zM109 560q0 84 62.5 132.5t157.5 48.5
q80 0 140 -39.5t60 -116.5q0 -60 -37 -107t-99 -84q77 -37 122 -85.5t45 -121.5q0 -76 -61 -140.5t-189 -64.5q-129 0 -183 66t-54 132q0 65 41 122.5t103 91.5q-55 37 -81.5 73t-26.5 93z" />
    <glyph glyph-name="nine" unicode="9" 
d="M169 499q0 -72 34.5 -121.5t103.5 -49.5q59 0 105 40t46 99q0 81 -37.5 141.5t-115.5 60.5q-69 0 -102.5 -48.5t-33.5 -121.5zM110 93q45 -18 87 -28.5t81 -10.5q105 0 145.5 87.5t40.5 205.5l-2 2q-65 -90 -177 -90q-95 0 -153.5 64t-58.5 160q0 115 68.5 186.5
t173.5 71.5q134 0 192.5 -109.5t58.5 -256.5q0 -91 -24.5 -179t-89 -151t-176.5 -63q-42 0 -83 7t-83 20v84z" />
    <glyph glyph-name="colon" unicode=":" horiz-adv-x="316" 
d="M97 120h121v-120h-121v120zM97 530h121v-120h-121v120z" />
    <glyph glyph-name="semicolon" unicode=";" horiz-adv-x="316" 
d="M97 0v120h121v-92q0 -74 -26 -120.5t-95 -52.5v37q29 8 37 30.5t10 43t2 34.5h-49zM97 530h121v-120h-121v120z" />
    <glyph glyph-name="less" unicode="&#x3c;" 
d="M27 289l578 289v-84l-416 -205l416 -205v-82z" />
    <glyph glyph-name="equal" unicode="=" 
d="M27 240h578v-72h-578v72zM27 410h578v-72h-578v72z" />
    <glyph glyph-name="greater" unicode="&#x3e;" 
d="M605 289l-578 -289v84l417 205l-417 205v82z" />
    <glyph glyph-name="question" unicode="?" horiz-adv-x="422" 
d="M122 193v50q0 59 46 121q43 51 88.5 107t45.5 103q0 49 -37.5 72t-89.5 23q-39 0 -79 -9.5t-78 -27.5v82q41 12 86 19.5t85 7.5q89 0 152 -41.5t63 -126.5q0 -64 -93 -156.5t-93 -153.5v-70h-96zM122 96h96v-96h-96v96z" />
    <glyph glyph-name="at" unicode="@" horiz-adv-x="858" 
d="M538 502q-17 7 -37 11.5t-38 4.5q-82 0 -123 -76.5t-41 -167.5q0 -28 9 -48.5t33 -20.5q34 0 93.5 75t84.5 127zM565 274q-3 -14 -4.5 -23.5t-1.5 -19.5q0 -26 37 -26q61 0 111.5 64t50.5 158q0 114 -77 184t-192 70q-155 0 -272 -119t-117 -274q0 -116 73 -181t192 -65
q43 0 77 6.5t68 23.5l20 -52q-85 -38 -175 -38q-165 0 -240 98.5t-75 198.5q0 181 136.5 321.5t318.5 140.5q125 0 224 -82t99 -223q0 -114 -70 -202.5t-181 -88.5q-46 0 -64.5 16t-18.5 41q0 14 5 33t14 48l10 30h-6q-32 -64 -83 -116t-107 -52q-45 0 -69 31.5t-24 78.5
q0 86 65.5 204.5t189.5 118.5q25 0 74 -4t71 -4z" />
    <glyph glyph-name="A" unicode="A" horiz-adv-x="690" 
d="M297 723h96l286 -723h-103l-82 205h-318l-81 -205h-84zM466 277l-131 330l-130 -330h261z" />
    <glyph glyph-name="B" unicode="B" horiz-adv-x="575" 
d="M192 404h40q75 0 124 34t49 105q0 62 -45 85t-110 23h-58v-247zM96 723h204q84 0 142.5 -41.5t58.5 -116.5q0 -64 -41.5 -116.5t-103.5 -71.5q76 -20 125 -71.5t49 -126.5q0 -66 -49 -122.5t-136 -56.5h-249v723zM192 77q28 -3 43 -4t48 -1q85 0 115 34t30 82
q0 86 -75 121t-161 35v-267z" />
    <glyph glyph-name="C" unicode="C" horiz-adv-x="692" 
d="M634 617q-73 25 -127 38.5t-118 13.5q-121 0 -177 -89.5t-56 -218.5t55.5 -218t177.5 -89q75 0 129.5 16.5t115.5 51.5v-83q-54 -32 -111 -44.5t-134 -12.5q-160 0 -247.5 108t-87.5 271q0 164 87.5 272t247.5 108q64 0 120.5 -8t124.5 -25v-91z" />
    <glyph glyph-name="D" unicode="D" horiz-adv-x="749" 
d="M96 723h264q162 0 248.5 -91.5t86.5 -253.5q0 -159 -86 -268.5t-250 -109.5h-263v723zM192 72h163q96 0 167 67t71 230q0 134 -67 208t-201 74h-133v-579z" />
    <glyph glyph-name="E" unicode="E" horiz-adv-x="542" 
d="M96 723h398v-72h-302v-238h254v-72h-254v-269h323v-72h-419v723z" />
    <glyph glyph-name="F" unicode="F" horiz-adv-x="536" 
d="M96 723h398v-72h-302v-247h254v-72h-254v-332h-96v723z" />
    <glyph glyph-name="G" unicode="G" horiz-adv-x="723" 
d="M635 20q-59 -19 -117.5 -28.5t-128.5 -9.5q-160 0 -247.5 108t-87.5 271q0 164 87.5 272t247.5 108q64 0 120.5 -8t124.5 -25v-91q-73 25 -127 38.5t-118 13.5q-121 0 -177 -89.5t-56 -218.5t55.5 -218t177.5 -89q98 0 150 20v215h96v-269z" />
    <glyph glyph-name="H" unicode="H" horiz-adv-x="735" 
d="M96 723h96v-310h351v310h96v-723h-96v341h-351v-341h-96v723z" />
    <glyph glyph-name="I" unicode="I" horiz-adv-x="288" 
d="M96 723h96v-723h-96v723z" />
    <glyph glyph-name="J" unicode="J" horiz-adv-x="311" 
d="M-89 -48q28 -10 50.5 -14.5t50.5 -4.5q70 0 88.5 42t18.5 124v624h96v-643q0 -90 -48.5 -157.5t-171.5 -67.5q-43 0 -84 9v88z" />
    <glyph glyph-name="K" unicode="K" horiz-adv-x="653" 
d="M96 723h96v-356l290 356h93l-274 -337l337 -386h-132l-314 367v-367h-96v723z" />
    <glyph glyph-name="L" unicode="L" horiz-adv-x="533" 
d="M96 723h96v-651h326v-72h-422v723z" />
    <glyph glyph-name="M" unicode="M" horiz-adv-x="861" 
d="M96 723h136l202 -569l210 569h121v-723h-90v596l-202 -548h-96l-195 548l-2 -596h-84v723z" />
    <glyph glyph-name="N" unicode="N" horiz-adv-x="741" 
d="M96 723h97l366 -571l2 571h84v-723h-96l-367 571l-2 -571h-84v723z" />
    <glyph glyph-name="O" unicode="O" horiz-adv-x="777" 
d="M54 361q0 164 87.5 272t247.5 108t247 -108t87 -272t-86.5 -271.5t-247.5 -107.5q-160 0 -247.5 108t-87.5 271zM621 361q0 129 -55 218.5t-177 89.5q-121 0 -177 -89.5t-56 -218.5t55.5 -218t177.5 -89q121 0 176.5 89.5t55.5 217.5z" />
    <glyph glyph-name="P" unicode="P" horiz-adv-x="553" 
d="M88 723h234q87 0 144.5 -45.5t57.5 -142.5q0 -140 -94 -193.5t-246 -53.5v-288h-96v723zM184 360q118 0 178 36t60 131q0 63 -37.5 93.5t-88.5 30.5h-112v-291z" />
    <glyph glyph-name="Q" unicode="Q" horiz-adv-x="777" 
d="M732 -145q-84 29 -150 59t-131 73q-32 -5 -62 -5q-160 0 -247.5 108t-87.5 271q0 164 87.5 272t247.5 108t247 -108t87 -272q0 -116 -43.5 -208t-139.5 -139q59 -26 125 -47.5t128 -32.5zM621 361q0 129 -55 218.5t-177 89.5q-121 0 -177 -89.5t-56 -218.5t55.5 -218
t177.5 -89q121 0 176.5 89.5t55.5 217.5z" />
    <glyph glyph-name="R" unicode="R" 
d="M96 723h234q72 0 133.5 -43t61.5 -139q0 -66 -42.5 -123.5t-105.5 -79.5l241 -338h-119l-209 307h-98v-307h-96v723zM192 383q18 -3 23 -3.5t18 -0.5q92 0 141 40t49 119q0 52 -37.5 82.5t-98.5 30.5h-95v-268z" />
    <glyph glyph-name="S" unicode="S" horiz-adv-x="539" 
d="M51 112q61 -29 106 -43.5t97 -14.5q56 0 95.5 31.5t39.5 85.5q0 72 -86 130q-81 49 -161 98q-87 64 -87 150q0 65 52.5 128.5t164.5 63.5q43 0 85.5 -7t83.5 -22v-89q-52 20 -88 33t-83 13q-60 0 -92.5 -33t-32.5 -70q0 -59 85 -112.5t167 -103.5q88 -69 88 -162
q0 -72 -58 -139t-188 -67q-46 0 -90 8t-98 25v97z" />
    <glyph glyph-name="T" unicode="T" 
d="M268 651h-256v72h608v-72h-256v-651h-96v651z" />
    <glyph glyph-name="U" unicode="U" horiz-adv-x="693" 
d="M186 723v-447q0 -109 34.5 -165.5t137.5 -56.5q101 0 130.5 55t29.5 165v449h84v-483q0 -122 -60 -190t-188 -68q-133 0 -198.5 66.5t-65.5 191.5v483h96z" />
    <glyph glyph-name="V" unicode="V" horiz-adv-x="654" 
d="M381 0h-96l-274 723h103l227 -600l218 600h84z" />
    <glyph glyph-name="W" unicode="W" horiz-adv-x="855" 
d="M3 723h93l149 -580l139 580h95l129 -571l163 571h81l-204 -723h-97l-128 569l-137 -569h-96z" />
    <glyph glyph-name="X" unicode="X" horiz-adv-x="626" 
d="M257 364l-229 359h115l176 -279l186 279h94l-232 -351l237 -372h-114l-187 292l-193 -292h-94z" />
    <glyph glyph-name="Y" unicode="Y" horiz-adv-x="623" 
d="M254 301l-241 422h111l189 -331l204 331h92l-259 -422v-301h-96v301z" />
    <glyph glyph-name="Z" unicode="Z" horiz-adv-x="605" 
d="M48 78l392 573h-368v72h485v-72l-392 -573h392v-78h-509v78z" />
    <glyph glyph-name="bracketleft" unicode="[" horiz-adv-x="325" 
d="M96 771h193v-72h-109v-772h109v-72h-193v916z" />
    <glyph glyph-name="backslash" unicode="\" horiz-adv-x="494" 
d="M6 771h79l403 -916h-79z" />
    <glyph glyph-name="bracketright" unicode="]" horiz-adv-x="325" 
d="M229 -145h-193v72h109v772h-109v72h193v-916z" />
    <glyph glyph-name="asciicircum" unicode="^" 
d="M108 145h-81l289 578l289 -578h-80l-209 416z" />
    <glyph glyph-name="underscore" unicode="_" horiz-adv-x="500" 
d="M0 0h500v-60h-500v60z" />
    <glyph glyph-name="grave" unicode="`" horiz-adv-x="614" 
d="M175 771h108l109 -144h-85z" />
    <glyph glyph-name="a" unicode="a" horiz-adv-x="552" 
d="M350 257h-46q-56 0 -110 -26.5t-54 -82.5q0 -35 25.5 -58.5t61.5 -23.5q32 0 63 14.5t60 39.5v137zM522 3q-30 -15 -71 -15q-35 0 -59 22t-30 57q-35 -35 -77 -57t-86 -22q-66 0 -110.5 40.5t-44.5 105.5q0 78 68 129t200 51h38v36q0 64 -18.5 92t-79.5 28
q-38 0 -81 -13.5t-81 -33.5v79q44 18 91 29t94 11q171 0 171 -157v-236q0 -57 11 -74.5t40 -17.5h18z" />
    <glyph glyph-name="b" unicode="b" horiz-adv-x="630" 
d="M182 127q41 -36 70 -51.5t74 -15.5q73 0 105 63.5t32 145.5q0 104 -33.5 146.5t-88.5 42.5q-45 0 -85 -24t-74 -64v-243zM86 771h96v-241l-6 -99h6q27 53 72.5 82t104.5 29q106 0 156 -75t50 -187q0 -116 -56.5 -204t-166.5 -88q-51 0 -89.5 17t-70.5 55h-6l-12 -66h-78
v777z" />
    <glyph glyph-name="c" unicode="c" horiz-adv-x="518" 
d="M458 444q-39 13 -71.5 19.5t-68.5 6.5q-81 0 -121.5 -60t-40.5 -146q0 -87 42.5 -145.5t127.5 -58.5q75 0 138 33v-77q-50 -15 -84 -21.5t-73 -6.5q-142 0 -197.5 89.5t-55.5 187.5q0 110 58.5 193.5t194.5 83.5q68 0 151 -17v-81z" />
    <glyph glyph-name="d" unicode="d" horiz-adv-x="630" 
d="M437 403q-41 36 -70 51.5t-74 15.5q-73 0 -105 -63.5t-32 -145.5q0 -104 33.5 -146.5t88.5 -42.5q45 0 85 24t74 64v243zM443 99h-6q-27 -53 -72.5 -82t-104.5 -29q-105 0 -155.5 76t-50.5 186q0 116 56.5 204t166.5 88q52 0 90.5 -16.5t69.5 -55.5h6l-6 72v229h96v-771
h-96z" />
    <glyph glyph-name="e" unicode="e" horiz-adv-x="557" 
d="M156 250q0 -86 46 -138t132 -52q76 0 151 35v-77q-41 -13 -86 -21.5t-92 -8.5q-142 0 -197.5 89.5t-55.5 187.5q0 112 60.5 194.5t167.5 82.5q114 0 158.5 -83.5t44.5 -208.5h-329zM383 316q0 67 -23.5 110.5t-83.5 43.5q-57 0 -87 -47t-30 -107h224z" />
    <glyph glyph-name="f" unicode="f" horiz-adv-x="367" 
d="M124 458h-75v72h75v92q0 79 49.5 120t125.5 41q52 0 108 -16v-76q-29 9 -54 14.5t-50 5.5q-44 0 -63.5 -23t-19.5 -56v-102h133v-72h-133v-458h-96v458z" />
    <glyph glyph-name="g" unicode="g" horiz-adv-x="623" 
d="M437 404q-27 31 -63.5 48.5t-76.5 17.5q-74 0 -107.5 -59t-33.5 -152q0 -75 27.5 -125t95.5 -50q44 0 85 24.5t73 63.5v232zM533 57q0 -128 -61.5 -195t-205.5 -67q-43 0 -85.5 7t-82.5 22l11 83q38 -18 80 -29t84 -11q96 0 130 48.5t34 137.5l6 58h-6
q-23 -50 -70.5 -80.5t-102.5 -30.5q-108 0 -159 75t-51 190q0 114 59 195.5t170 81.5q94 0 154 -72h6v60h90v-473z" />
    <glyph glyph-name="h" unicode="h" horiz-adv-x="620" 
d="M93 771h96v-241l-6 -99h6q34 50 83.5 80.5t106.5 30.5q67 0 107.5 -45.5t40.5 -107.5v-389h-96v377q0 38 -20 59.5t-54 21.5q-52 0 -94 -32t-74 -83v-343h-96v771z" />
    <glyph glyph-name="i" unicode="i" horiz-adv-x="289" 
d="M96 530h96v-530h-96v530zM96 723h96v-96h-96v96z" />
    <glyph glyph-name="j" unicode="j" horiz-adv-x="304" 
d="M-77 -105q60 -21 72.5 -24.5t30.5 -3.5q53 0 69 29t16 83v33v518h96v-559q0 -80 -42.5 -128t-133.5 -48q-29 0 -54 6t-54 18v76zM111 723h96v-96h-96v96z" />
    <glyph glyph-name="k" unicode="k" horiz-adv-x="585" 
d="M96 771h96v-494l227 253h97l-210 -235l263 -295h-129l-248 277v-277h-96v771z" />
    <glyph glyph-name="l" unicode="l" horiz-adv-x="289" 
d="M96 771h96v-771h-96v771z" />
    <glyph glyph-name="m" unicode="m" horiz-adv-x="934" 
d="M184 431h6q32 52 78 81.5t105 29.5q51 0 91.5 -31t44.5 -80h6q27 48 75 79.5t102 31.5q55 0 101.5 -35t46.5 -114v-393h-96v378q0 43 -21 63.5t-50 20.5q-47 0 -83.5 -29t-74.5 -78v-355h-96v378q0 43 -21 63.5t-50 20.5q-47 0 -83.5 -29t-74.5 -78v-355h-96v530h96z" />
    <glyph glyph-name="n" unicode="n" horiz-adv-x="620" 
d="M183 431h6q34 50 83.5 80.5t106.5 30.5q67 0 107.5 -45.5t40.5 -107.5v-389h-96v377q0 38 -20 59.5t-54 21.5q-52 0 -94 -32t-74 -83v-343h-96v530h96z" />
    <glyph glyph-name="o" unicode="o" horiz-adv-x="614" 
d="M54 265q0 110 58.5 193.5t194.5 83.5q135 0 194 -84t59 -193q0 -98 -55 -187.5t-198 -89.5q-142 0 -197.5 89.5t-55.5 187.5zM458 265q0 87 -34.5 146t-116.5 59q-80 0 -115.5 -59.5t-35.5 -145.5q0 -87 34.5 -146t116.5 -59q80 0 115.5 59.5t35.5 145.5z" />
    <glyph glyph-name="p" unicode="p" horiz-adv-x="630" 
d="M192 127q41 -36 70 -51.5t74 -15.5q73 0 105 63.5t32 145.5q0 104 -33.5 146.5t-88.5 42.5q-45 0 -85 -24t-74 -64v-243zM186 431h6q27 53 72.5 82t104.5 29q106 0 156 -75t50 -187q0 -116 -56.5 -204t-166.5 -88q-51 0 -89.5 17t-70.5 55h-6l6 -72v-181h-96v723h96z" />
    <glyph glyph-name="q" unicode="q" horiz-adv-x="630" 
d="M437 403q-41 36 -70 51.5t-74 15.5q-73 0 -105 -63.5t-32 -145.5q0 -104 33.5 -146.5t88.5 -42.5q45 0 85 24t74 64v243zM533 -193h-96v193l6 99h-6q-27 -53 -72.5 -82t-104.5 -29q-105 0 -155.5 76t-50.5 186q0 116 56.5 204t166.5 88q52 0 90.5 -16.5t69.5 -55.5h6
l-6 60h96v-723z" />
    <glyph glyph-name="r" unicode="r" horiz-adv-x="409" 
d="M186 431h6q26 51 69.5 81t98.5 30h29v-92q-10 4 -20 6t-23 2q-50 0 -89 -29.5t-65 -79.5v-349h-96v530h96z" />
    <glyph glyph-name="s" unicode="s" horiz-adv-x="510" 
d="M77 107q38 -19 82 -33t80 -14q38 0 68 20.5t30 57.5q0 44 -64 74.5t-126 60.5q-67 45 -67 121q0 73 49.5 110.5t133.5 37.5q32 0 68 -6t62 -10v-80q-38 12 -67 18t-62 6q-37 0 -65.5 -16.5t-28.5 -51.5q0 -39 92.5 -83t131.5 -70.5t39 -99.5q0 -78 -58.5 -119.5
t-140.5 -41.5q-36 0 -74 8t-83 22v89z" />
    <glyph glyph-name="t" unicode="t" horiz-adv-x="374" 
d="M323 530v-72h-127v-282q0 -58 17.5 -87t72.5 -29q23 0 47 6v-66q-15 -4 -33 -8t-43 -4q-85 0 -121 48t-36 103v319h-66v72h66v97l96 10v-107h127z" />
    <glyph glyph-name="u" unicode="u" horiz-adv-x="620" 
d="M432 0l5 99h-6q-34 -50 -83.5 -80.5t-106.5 -30.5q-67 0 -107.5 45.5t-40.5 107.5v389h96v-377q0 -38 20 -59.5t54 -21.5q52 0 94 32t74 83v343h96v-530h-95z" />
    <glyph glyph-name="v" unicode="v" horiz-adv-x="572" 
d="M13 530h98l180 -434l187 434h80l-229 -530h-96z" />
    <glyph glyph-name="w" unicode="w" horiz-adv-x="840" 
d="M40 530h94l127 -407l126 407h86l115 -414l135 414h76l-169 -530h-96l-111 398l-121 -398h-97z" />
    <glyph glyph-name="x" unicode="x" horiz-adv-x="613" 
d="M243 273l-192 257h121l150 -201l139 201h95l-185 -267l197 -263h-121l-155 207l-151 -207h-97z" />
    <glyph glyph-name="y" unicode="y" horiz-adv-x="568" 
d="M225 0l-208 530h104l161 -412l191 412h86l-334 -723h-95z" />
    <glyph glyph-name="z" unicode="z" horiz-adv-x="573" 
d="M60 72l329 386h-314v72h432v-72l-328 -386h334v-72h-453v72z" />
    <glyph glyph-name="braceleft" unicode="{" horiz-adv-x="325" 
d="M12 349h21q40 0 59 18t19 62q0 16 -5.5 45t-10.5 54.5t-8 44t-3 44.5q0 70 51.5 112t123.5 42v-72q-40 0 -65.5 -15t-25.5 -46q0 -16 2.5 -33.5t8 -50t8 -50.5t2.5 -37q0 -51 -16 -86t-56 -68q72 -59 72 -154q0 -16 -2.5 -35.5t-8 -52t-8 -50t-2.5 -33.5q0 -31 25.5 -46
t65.5 -15v-72q-73 0 -124 41.5t-51 112.5q0 25 3 45t9 50t10.5 53.5t4.5 39.5q0 44 -19 62t-59 18h-21v72z" />
    <glyph glyph-name="bar" unicode="|" horiz-adv-x="265" 
d="M96 771h72v-916h-72v916z" />
    <glyph glyph-name="braceright" unicode="}" horiz-adv-x="325" 
d="M313 277h-21q-40 0 -59 -18t-19 -62q0 -16 5.5 -45t10.5 -54.5t8 -44t3 -44.5q0 -70 -51.5 -112t-123.5 -42v72q40 0 65.5 15t25.5 46q0 16 -2.5 33.5t-8 50t-8 50.5t-2.5 37q0 51 16 86t56 68q-72 59 -72 154q0 20 0.5 27t8 50t10 60.5t2.5 33.5q0 31 -25.5 46t-65.5 15
v72q73 0 124 -41.5t51 -112.5q0 -25 -3 -45t-9.5 -50t-10.5 -53.5t-4 -39.5q0 -44 19 -62t59 -18h21v-72z" />
    <glyph glyph-name="asciitilde" unicode="~" 
d="M605 362q0 -66 -36.5 -114t-101.5 -48q-41 0 -74.5 12.5t-89 41t-81.5 40.5t-49 12q-34 0 -54 -26t-20 -62h-72q0 68 40.5 114t107.5 46q35 0 62 -10t85 -41t88.5 -43t51.5 -12q33 0 52 27.5t19 62.5h72z" />
    <glyph glyph-name="Adieresis" unicode="&#xc4;" horiz-adv-x="690" 
d="M297 723h96l286 -723h-103l-82 205h-318l-81 -205h-84zM466 277l-131 330l-130 -330h261zM207 904h84v-84h-84v84zM399 904h84v-84h-84v84z" />
    <glyph glyph-name="Aring" unicode="&#xc5;" horiz-adv-x="690" 
d="M297 723h96l286 -723h-103l-82 205h-318l-81 -205h-84zM466 277l-131 330l-130 -330h261zM267 898q0 32 23 55t55 23t55 -23t23 -55t-23 -55t-55 -23t-55 23t-23 55zM387 898q0 18 -12 30t-30 12t-30 -12t-12 -30t12 -30t30 -12t30 12t12 30z" />
    <glyph glyph-name="Ccedilla" unicode="&#xc7;" horiz-adv-x="692" 
d="M634 617q-73 25 -127 38.5t-118 13.5q-121 0 -177 -89.5t-56 -218.5t55.5 -218t177.5 -89q75 0 129.5 16.5t115.5 51.5v-83q-54 -32 -111 -44.5t-134 -12.5q-160 0 -247.5 108t-87.5 271q0 164 87.5 272t247.5 108q64 0 120.5 -8t124.5 -25v-91zM288 -144q7 -1 14 -2.5
t18 -1.5q20 0 34.5 8t14.5 26q0 20 -19 31.5t-41 14.5l42 68h44l-30 -50q34 -6 55 -25t21 -50q0 -35 -29 -53t-65 -18q-14 0 -29.5 3t-29.5 8v41z" />
    <glyph glyph-name="Eacute" unicode="&#xc9;" horiz-adv-x="542" 
d="M96 723h398v-72h-302v-238h254v-72h-254v-269h323v-72h-419v723zM294 964h109l-133 -144h-84z" />
    <glyph glyph-name="Ntilde" unicode="&#xd1;" horiz-adv-x="741" 
d="M96 723h97l366 -571l2 571h84v-723h-96l-367 571l-2 -571h-84v723zM208 820q0 36 22 75t71 39q19 0 37 -4.5t37 -14.5t34.5 -16.5t27.5 -6.5q17 0 25.5 11.5t10.5 30.5h60q0 -36 -22 -75t-71 -39q-19 0 -37 4.5t-37 14.5t-34.5 16.5t-27.5 6.5q-17 0 -25.5 -11.5
t-10.5 -30.5h-60z" />
    <glyph glyph-name="Odieresis" unicode="&#xd6;" horiz-adv-x="777" 
d="M54 361q0 164 87.5 272t247.5 108t247 -108t87 -272t-86.5 -271.5t-247.5 -107.5q-160 0 -247.5 108t-87.5 271zM621 361q0 129 -55 218.5t-177 89.5q-121 0 -177 -89.5t-56 -218.5t55.5 -218t177.5 -89q121 0 176.5 89.5t55.5 217.5zM251 904h84v-84h-84v84zM443 904h84
v-84h-84v84z" />
    <glyph glyph-name="Udieresis" unicode="&#xdc;" horiz-adv-x="693" 
d="M186 723v-447q0 -109 34.5 -165.5t137.5 -56.5q101 0 130.5 55t29.5 165v449h84v-483q0 -122 -60 -190t-188 -68q-133 0 -198.5 66.5t-65.5 191.5v483h96zM209 904h84v-84h-84v84zM401 904h84v-84h-84v84z" />
    <glyph glyph-name="aacute" unicode="&#xe1;" horiz-adv-x="552" 
d="M350 257h-46q-56 0 -110 -26.5t-54 -82.5q0 -35 25.5 -58.5t61.5 -23.5q32 0 63 14.5t60 39.5v137zM522 3q-30 -15 -71 -15q-35 0 -59 22t-30 57q-35 -35 -77 -57t-86 -22q-66 0 -110.5 40.5t-44.5 105.5q0 78 68 129t200 51h38v36q0 64 -18.5 92t-79.5 28
q-38 0 -81 -13.5t-81 -33.5v79q44 18 91 29t94 11q171 0 171 -157v-236q0 -57 11 -74.5t40 -17.5h18zM299 771h109l-133 -144h-84z" />
    <glyph glyph-name="agrave" unicode="&#xe0;" horiz-adv-x="552" 
d="M350 257h-46q-56 0 -110 -26.5t-54 -82.5q0 -35 25.5 -58.5t61.5 -23.5q32 0 63 14.5t60 39.5v137zM522 3q-30 -15 -71 -15q-35 0 -59 22t-30 57q-35 -35 -77 -57t-86 -22q-66 0 -110.5 40.5t-44.5 105.5q0 78 68 129t200 51h38v36q0 64 -18.5 92t-79.5 28
q-38 0 -81 -13.5t-81 -33.5v79q44 18 91 29t94 11q171 0 171 -157v-236q0 -57 11 -74.5t40 -17.5h18zM144 771h108l109 -144h-85z" />
    <glyph glyph-name="acircumflex" unicode="&#xe2;" horiz-adv-x="552" 
d="M350 257h-46q-56 0 -110 -26.5t-54 -82.5q0 -35 25.5 -58.5t61.5 -23.5q32 0 63 14.5t60 39.5v137zM522 3q-30 -15 -71 -15q-35 0 -59 22t-30 57q-35 -35 -77 -57t-86 -22q-66 0 -110.5 40.5t-44.5 105.5q0 78 68 129t200 51h38v36q0 64 -18.5 92t-79.5 28
q-38 0 -81 -13.5t-81 -33.5v79q44 18 91 29t94 11q171 0 171 -157v-236q0 -57 11 -74.5t40 -17.5h18zM275 723l-78 -96h-84l108 144h108l109 -144h-84z" />
    <glyph glyph-name="adieresis" unicode="&#xe4;" horiz-adv-x="552" 
d="M350 257h-46q-56 0 -110 -26.5t-54 -82.5q0 -35 25.5 -58.5t61.5 -23.5q32 0 63 14.5t60 39.5v137zM522 3q-30 -15 -71 -15q-35 0 -59 22t-30 57q-35 -35 -77 -57t-86 -22q-66 0 -110.5 40.5t-44.5 105.5q0 78 68 129t200 51h38v36q0 64 -18.5 92t-79.5 28
q-38 0 -81 -13.5t-81 -33.5v79q44 18 91 29t94 11q171 0 171 -157v-236q0 -57 11 -74.5t40 -17.5h18zM138 711h84v-84h-84v84zM330 711h84v-84h-84v84z" />
    <glyph glyph-name="atilde" unicode="&#xe3;" horiz-adv-x="552" 
d="M350 257h-46q-56 0 -110 -26.5t-54 -82.5q0 -35 25.5 -58.5t61.5 -23.5q32 0 63 14.5t60 39.5v137zM522 3q-30 -15 -71 -15q-35 0 -59 22t-30 57q-35 -35 -77 -57t-86 -22q-66 0 -110.5 40.5t-44.5 105.5q0 78 68 129t200 51h38v36q0 64 -18.5 92t-79.5 28
q-38 0 -81 -13.5t-81 -33.5v79q44 18 91 29t94 11q171 0 171 -157v-236q0 -57 11 -74.5t40 -17.5h18zM113 627q0 36 22 75t71 39q19 0 37 -4.5t37 -14.5t34.5 -16.5t27.5 -6.5q17 0 25.5 11.5t10.5 30.5h60q0 -36 -22 -75t-71 -39q-19 0 -37 4.5t-37 14.5t-34.5 16.5
t-27.5 6.5q-17 0 -25.5 -11.5t-10.5 -30.5h-60z" />
    <glyph glyph-name="aring" unicode="&#xe5;" horiz-adv-x="552" 
d="M350 257h-46q-56 0 -110 -26.5t-54 -82.5q0 -35 25.5 -58.5t61.5 -23.5q32 0 63 14.5t60 39.5v137zM522 3q-30 -15 -71 -15q-35 0 -59 22t-30 57q-35 -35 -77 -57t-86 -22q-66 0 -110.5 40.5t-44.5 105.5q0 78 68 129t200 51h38v36q0 64 -18.5 92t-79.5 28
q-38 0 -81 -13.5t-81 -33.5v79q44 18 91 29t94 11q171 0 171 -157v-236q0 -57 11 -74.5t40 -17.5h18zM198 705q0 32 23 55t55 23t55 -23t23 -55t-23 -55t-55 -23t-55 23t-23 55zM318 705q0 18 -12 30t-30 12t-30 -12t-12 -30t12 -30t30 -12t30 12t12 30z" />
    <glyph glyph-name="ccedilla" unicode="&#xe7;" horiz-adv-x="518" 
d="M458 444q-39 13 -71.5 19.5t-68.5 6.5q-81 0 -121.5 -60t-40.5 -146q0 -87 42.5 -145.5t127.5 -58.5q75 0 138 33v-77q-50 -15 -84 -21.5t-73 -6.5q-142 0 -197.5 89.5t-55.5 187.5q0 110 58.5 193.5t194.5 83.5q68 0 151 -17v-81zM201 -144q7 -1 14 -2.5t18 -1.5
q20 0 34.5 8t14.5 26q0 20 -19 31.5t-41 14.5l42 68h44l-30 -50q34 -6 55 -25t21 -50q0 -35 -29 -53t-65 -18q-14 0 -29.5 3t-29.5 8v41z" />
    <glyph glyph-name="eacute" unicode="&#xe9;" horiz-adv-x="557" 
d="M156 250q0 -86 46 -138t132 -52q76 0 151 35v-77q-41 -13 -86 -21.5t-92 -8.5q-142 0 -197.5 89.5t-55.5 187.5q0 112 60.5 194.5t167.5 82.5q114 0 158.5 -83.5t44.5 -208.5h-329zM383 316q0 67 -23.5 110.5t-83.5 43.5q-57 0 -87 -47t-30 -107h224zM302 771h109
l-133 -144h-84z" />
    <glyph glyph-name="egrave" unicode="&#xe8;" horiz-adv-x="557" 
d="M156 250q0 -86 46 -138t132 -52q76 0 151 35v-77q-41 -13 -86 -21.5t-92 -8.5q-142 0 -197.5 89.5t-55.5 187.5q0 112 60.5 194.5t167.5 82.5q114 0 158.5 -83.5t44.5 -208.5h-329zM383 316q0 67 -23.5 110.5t-83.5 43.5q-57 0 -87 -47t-30 -107h224zM147 771h108
l109 -144h-85z" />
    <glyph glyph-name="ecircumflex" unicode="&#xea;" horiz-adv-x="557" 
d="M156 250q0 -86 46 -138t132 -52q76 0 151 35v-77q-41 -13 -86 -21.5t-92 -8.5q-142 0 -197.5 89.5t-55.5 187.5q0 112 60.5 194.5t167.5 82.5q114 0 158.5 -83.5t44.5 -208.5h-329zM383 316q0 67 -23.5 110.5t-83.5 43.5q-57 0 -87 -47t-30 -107h224zM278 723l-78 -96
h-84l108 144h108l109 -144h-84z" />
    <glyph glyph-name="edieresis" unicode="&#xeb;" horiz-adv-x="557" 
d="M156 250q0 -86 46 -138t132 -52q76 0 151 35v-77q-41 -13 -86 -21.5t-92 -8.5q-142 0 -197.5 89.5t-55.5 187.5q0 112 60.5 194.5t167.5 82.5q114 0 158.5 -83.5t44.5 -208.5h-329zM383 316q0 67 -23.5 110.5t-83.5 43.5q-57 0 -87 -47t-30 -107h224zM141 711h84v-84h-84
v84zM333 711h84v-84h-84v84z" />
    <glyph glyph-name="iacute" unicode="&#xed;" horiz-adv-x="289" 
d="M96 530h96v-530h-96v530zM168 771h109l-133 -144h-84z" />
    <glyph glyph-name="igrave" unicode="&#xec;" horiz-adv-x="289" 
d="M96 530h96v-530h-96v530zM13 771h108l109 -144h-85z" />
    <glyph glyph-name="icircumflex" unicode="&#xee;" horiz-adv-x="289" 
d="M96 530h96v-530h-96v530zM144 723l-78 -96h-84l108 144h108l109 -144h-84z" />
    <glyph glyph-name="idieresis" unicode="&#xef;" horiz-adv-x="289" 
d="M96 530h96v-530h-96v530zM7 711h84v-84h-84v84zM199 711h84v-84h-84v84z" />
    <glyph glyph-name="ntilde" unicode="&#xf1;" horiz-adv-x="620" 
d="M183 431h6q34 50 83.5 80.5t106.5 30.5q67 0 107.5 -45.5t40.5 -107.5v-389h-96v377q0 38 -20 59.5t-54 21.5q-52 0 -94 -32t-74 -83v-343h-96v530h96zM147 627q0 36 22 75t71 39q19 0 37 -4.5t37 -14.5t34.5 -16.5t27.5 -6.5q17 0 25.5 11.5t10.5 30.5h60q0 -36 -22 -75
t-71 -39q-19 0 -37 4.5t-37 14.5t-34.5 16.5t-27.5 6.5q-17 0 -25.5 -11.5t-10.5 -30.5h-60z" />
    <glyph glyph-name="oacute" unicode="&#xf3;" horiz-adv-x="614" 
d="M54 265q0 110 58.5 193.5t194.5 83.5q135 0 194 -84t59 -193q0 -98 -55 -187.5t-198 -89.5q-142 0 -197.5 89.5t-55.5 187.5zM458 265q0 87 -34.5 146t-116.5 59q-80 0 -115.5 -59.5t-35.5 -145.5q0 -87 34.5 -146t116.5 -59q80 0 115.5 59.5t35.5 145.5zM330 771h109
l-133 -144h-84z" />
    <glyph glyph-name="ograve" unicode="&#xf2;" horiz-adv-x="614" 
d="M54 265q0 110 58.5 193.5t194.5 83.5q135 0 194 -84t59 -193q0 -98 -55 -187.5t-198 -89.5q-142 0 -197.5 89.5t-55.5 187.5zM458 265q0 87 -34.5 146t-116.5 59q-80 0 -115.5 -59.5t-35.5 -145.5q0 -87 34.5 -146t116.5 -59q80 0 115.5 59.5t35.5 145.5zM175 771h108
l109 -144h-85z" />
    <glyph glyph-name="ocircumflex" unicode="&#xf4;" horiz-adv-x="614" 
d="M54 265q0 110 58.5 193.5t194.5 83.5q135 0 194 -84t59 -193q0 -98 -55 -187.5t-198 -89.5q-142 0 -197.5 89.5t-55.5 187.5zM458 265q0 87 -34.5 146t-116.5 59q-80 0 -115.5 -59.5t-35.5 -145.5q0 -87 34.5 -146t116.5 -59q80 0 115.5 59.5t35.5 145.5zM306 723
l-78 -96h-84l108 144h108l109 -144h-84z" />
    <glyph glyph-name="odieresis" unicode="&#xf6;" horiz-adv-x="614" 
d="M54 265q0 110 58.5 193.5t194.5 83.5q135 0 194 -84t59 -193q0 -98 -55 -187.5t-198 -89.5q-142 0 -197.5 89.5t-55.5 187.5zM458 265q0 87 -34.5 146t-116.5 59q-80 0 -115.5 -59.5t-35.5 -145.5q0 -87 34.5 -146t116.5 -59q80 0 115.5 59.5t35.5 145.5zM169 711h84v-84
h-84v84zM361 711h84v-84h-84v84z" />
    <glyph glyph-name="otilde" unicode="&#xf5;" horiz-adv-x="614" 
d="M54 265q0 110 58.5 193.5t194.5 83.5q135 0 194 -84t59 -193q0 -98 -55 -187.5t-198 -89.5q-142 0 -197.5 89.5t-55.5 187.5zM458 265q0 87 -34.5 146t-116.5 59q-80 0 -115.5 -59.5t-35.5 -145.5q0 -87 34.5 -146t116.5 -59q80 0 115.5 59.5t35.5 145.5zM144 627
q0 36 22 75t71 39q19 0 37 -4.5t37 -14.5t34.5 -16.5t27.5 -6.5q17 0 25.5 11.5t10.5 30.5h60q0 -36 -22 -75t-71 -39q-19 0 -37 4.5t-37 14.5t-34.5 16.5t-27.5 6.5q-17 0 -25.5 -11.5t-10.5 -30.5h-60z" />
    <glyph glyph-name="uacute" unicode="&#xfa;" horiz-adv-x="620" 
d="M432 0l5 99h-6q-34 -50 -83.5 -80.5t-106.5 -30.5q-67 0 -107.5 45.5t-40.5 107.5v389h96v-377q0 -38 20 -59.5t54 -21.5q52 0 94 32t74 83v343h96v-530h-95zM333 771h109l-133 -144h-84z" />
    <glyph glyph-name="ugrave" unicode="&#xf9;" horiz-adv-x="620" 
d="M432 0l5 99h-6q-34 -50 -83.5 -80.5t-106.5 -30.5q-67 0 -107.5 45.5t-40.5 107.5v389h96v-377q0 -38 20 -59.5t54 -21.5q52 0 94 32t74 83v343h96v-530h-95zM178 771h108l109 -144h-85z" />
    <glyph glyph-name="ucircumflex" unicode="&#xfb;" horiz-adv-x="620" 
d="M432 0l5 99h-6q-34 -50 -83.5 -80.5t-106.5 -30.5q-67 0 -107.5 45.5t-40.5 107.5v389h96v-377q0 -38 20 -59.5t54 -21.5q52 0 94 32t74 83v343h96v-530h-95zM309 723l-78 -96h-84l108 144h108l109 -144h-84z" />
    <glyph glyph-name="udieresis" unicode="&#xfc;" horiz-adv-x="620" 
d="M432 0l5 99h-6q-34 -50 -83.5 -80.5t-106.5 -30.5q-67 0 -107.5 45.5t-40.5 107.5v389h96v-377q0 -38 20 -59.5t54 -21.5q52 0 94 32t74 83v343h96v-530h-95zM172 711h84v-84h-84v84zM364 711h84v-84h-84v84z" />
    <glyph glyph-name="dagger" unicode="&#x2020;" 
d="M521 470v-72l-169 12l12 -555h-96l12 555l-169 -12v72l169 -12l-12 265h96l-12 -265z" />
    <glyph glyph-name="degree" unicode="&#xb0;" horiz-adv-x="277" 
d="M139 741q35 0 59.5 -24.5t24.5 -59.5t-24 -60t-60 -25q-35 0 -60 25t-25 60q0 34 25 59t60 25zM139 614q18 0 30 12t12 31q0 18 -12 30t-30 12t-30.5 -12.5t-12.5 -29.5q0 -18 12.5 -30.5t30.5 -12.5z" />
    <glyph glyph-name="cent" unicode="&#xa2;" 
d="M324 563q-62 -14 -99 -76.5t-37 -130.5q0 -66 37.5 -122t98.5 -72v401zM372 0h-48v86q-107 14 -166.5 92.5t-59.5 188.5q0 112 60 191t166 79v86h48v-84q33 -3 66.5 -5.5t64.5 -11.5v-81q-21 5 -61 15.5t-70 10.5v-410q77 0 136 33v-77q-27 -10 -65 -17.5t-71 -10.5v-85z
" />
    <glyph glyph-name="sterling" unicode="&#xa3;" 
d="M526 645q-59 24 -119 24q-54 0 -71 -32t-17 -93v-123h106v-72h-106v-110q0 -36 -19 -75.5t-65 -77.5l298 -2v-84h-413v84q39 11 71 43t32 104v118h-87v72h87v134q0 72 48 129t154 57q51 0 101 -15v-81z" />
    <glyph glyph-name="section" unicode="&#xa7;" 
d="M439 262q0 51 -54.5 78t-161.5 73q-18 -20 -27.5 -42.5t-9.5 -47.5q0 -75 216 -156q18 22 27.5 45.5t9.5 49.5zM100 -39q56 -25 103 -38.5t98 -13.5q52 0 96.5 21.5t44.5 67.5q0 51 -85 89t-167 75q-88 53 -88 137q0 42 19 78t53 68q-35 21 -53.5 50t-18.5 68
q0 79 63.5 128.5t170.5 49.5q42 0 81.5 -5.5t85.5 -17.5v-79q-41 13 -85.5 21.5t-84.5 8.5q-50 0 -95.5 -21.5t-45.5 -67.5q0 -54 82.5 -89.5t162.5 -68.5q86 -51 86 -138q0 -40 -19.5 -76t-53.5 -73q39 -17 60.5 -53t21.5 -78q0 -57 -54 -112t-180 -55q-52 0 -97.5 8.5
t-100.5 27.5v88z" />
    <glyph glyph-name="bullet" unicode="&#x2022;" 
d="M166 440h301v-301h-301v301z" />
    <glyph glyph-name="paragraph" unicode="&#xb6;" 
d="M310 361q-91 0 -148 55t-57 147q0 79 44.5 119.5t122.5 40.5h231v-868h-60v808h-73v-808h-60v506z" />
    <glyph glyph-name="germandbls" unicode="&#xdf;" horiz-adv-x="598" 
d="M96 610q0 87 47 130t131 43q85 0 132 -36t47 -95q0 -25 -10 -54.5t-34 -61.5t-42 -55q-16 -23 -16 -39q0 -29 85.5 -102t108.5 -109t23 -88q0 -61 -43 -108t-129 -47q-72 0 -135 28v83q50 -22 82 -30.5t56 -8.5q36 0 57.5 20.5t21.5 55.5q0 32 -14.5 50.5t-79.5 71.5
t-94 86.5t-29 70.5q0 33 22 70q18 26 34 49.5t28 48.5t12 56q0 36 -23.5 54t-61.5 18q-48 0 -64 -33t-16 -88v-590h-96v610z" />
    <glyph glyph-name="registered" unicode="&#xae;" 
d="M316 741q90 0 153.5 -63.5t63.5 -153.5t-63.5 -153.5t-153.5 -63.5t-153.5 63.5t-63.5 153.5q0 89 64 153t153 64zM316 355q70 0 119.5 49.5t49.5 119.5t-49.5 119.5t-119.5 49.5q-71 0 -120 -49t-49 -120q0 -70 49.5 -119.5t119.5 -49.5zM231 651h63q53 0 82.5 -11.5
t29.5 -55.5q0 -26 -14.5 -44.5t-39.5 -32.5l61 -115h-55l-55 105h-24v-105h-48v259zM292 533q27 0 43 9.5t16 35.5q0 23 -13 30t-38 7h-12h-9v-82h13z" />
    <glyph glyph-name="copyright" unicode="&#xa9;" horiz-adv-x="855" 
d="M807 361q0 -157 -111 -268t-268 -111q-158 0 -269 111t-111 268q0 158 111 269t269 111q157 0 268 -111t111 -269zM108 361q0 -135 92 -227t228 -92q135 0 227 92t92 227t-92.5 227.5t-226.5 92.5q-135 0 -227.5 -92.5t-92.5 -227.5zM566 169q-28 -10 -61.5 -17t-62.5 -7
q-94 0 -152 60t-58 154q0 91 55 153.5t157 62.5q33 0 64.5 -4.5t57.5 -10.5v-60q-28 12 -58.5 19.5t-59.5 7.5q-70 0 -107 -47.5t-37 -119.5q0 -71 39.5 -116t109.5 -45q62 0 113 30v-60z" />
    <glyph glyph-name="trademark" unicode="&#x2122;" horiz-adv-x="807" 
d="M122 663h-120v60h324v-60h-120v-302h-84v302zM589 392h-58l-77 210l-2 -241h-66v362h114l75 -209l74 209h104v-362h-84v262z" />
    <glyph glyph-name="acute" unicode="&#xb4;" horiz-adv-x="614" 
d="M330 771h109l-133 -144h-84z" />
    <glyph glyph-name="dieresis" unicode="&#xa8;" horiz-adv-x="614" 
d="M169 711h84v-84h-84v84zM361 711h84v-84h-84v84z" />
    <glyph glyph-name="notequal" unicode="&#x2260;" horiz-adv-x="512" 
d="M96 723h398v-72h-302v-651h-96v723z" />
    <glyph glyph-name="AE" unicode="&#xc6;" horiz-adv-x="907" 
d="M434 723h425v-72h-302v-238h254v-72h-254v-269h323v-72h-419v205h-239l-119 -205h-91zM461 277v337l-197 -337h197z" />
    <glyph glyph-name="Oslash" unicode="&#xd8;" horiz-adv-x="777" 
d="M138 93q-42 51 -63 122.5t-21 145.5q0 164 87.5 272t247.5 108q58 0 105.5 -13.5t91.5 -46.5l46 60h91l-84 -110q43 -50 63.5 -126t20.5 -144q0 -164 -86.5 -271.5t-247.5 -107.5q-112 0 -198 61l-46 -61h-91zM536 615q-30 28 -67 41t-80 13q-121 0 -177 -89.5
t-56 -218.5q0 -55 9 -100.5t32 -91.5zM241 109q26 -28 66 -41.5t82 -13.5q121 0 176.5 89.5t55.5 217.5q0 48 -9 101t-31 92z" />
    <glyph glyph-name="infinity" unicode="&#x221e;" horiz-adv-x="651" 
d="M271 723h96l275 -723h-104l-228 602l-218 -602h-83z" />
    <glyph glyph-name="plusminus" unicode="&#xb1;" 
d="M27 72h578v-72h-578v72zM280 325h-253v72h253v181h72v-181h253v-72h-253v-181h-72v181z" />
    <glyph glyph-name="lessequal" unicode="&#x2264;" horiz-adv-x="657" 
d="M280 145q-129 0 -198.5 61.5t-69.5 154.5q0 97 68.5 157t199.5 60v145h96v-145q130 0 199 -60t69 -157q0 -93 -69 -154.5t-199 -61.5v-145h-96v145zM280 506q-74 0 -123 -36.5t-49 -108.5t48.5 -108t123.5 -36v289zM376 217q75 0 123.5 36t48.5 108q0 71 -48.5 108
t-123.5 37v-289z" />
    <glyph glyph-name="greaterequal" unicode="&#x2265;" horiz-adv-x="759" 
d="M109 651h-49v72h639v-72h-49v-651h-96v651h-349v-651h-96v651z" />
    <glyph glyph-name="yen" unicode="&#xa5;" 
d="M259 169h-145v72h145v48h-145v72h145l-226 362h114l175 -281l190 281h87l-244 -362h145v-72h-145v-48h145v-72h-145v-169h-96v169z" />
    <glyph glyph-name="uni00B5" unicode="&#xb5;" horiz-adv-x="627" 
d="M435 0l5 99h-6q-30 -50 -67.5 -80.5t-87.5 -30.5q-21 0 -45.5 6.5t-41.5 17.5v-157h-96v675h96v-377q0 -38 20 -59.5t54 -21.5q52 0 94 32t74 83v343h96v-530h-95z" />
    <glyph glyph-name="partialdiff" unicode="&#x2202;" horiz-adv-x="729" 
d="M316 325q-103 0 -145 56t-60.5 147.5t-28 103t-20.5 16t-25 4.5q-17 -1 -28 -1v72q56 0 84 -5.5t47.5 -27t53.5 -157.5t122 -136v326h96v-326q88 0 122 136t53 157t49.5 27t82.5 6v-72q-21 1 -29 1q-15 0 -24 -3.5t-20 -16.5q-22 -144 -71.5 -225.5t-162.5 -81.5v-325
h-96v325z" />
    <glyph glyph-name="summation" unicode="&#x2211;" horiz-adv-x="642" 
d="M27 84l304 265l-280 302v72h548v-72h-416l270 -291l-316 -276h486v-84h-596v84z" />
    <glyph glyph-name="product" unicode="&#x220f;" horiz-adv-x="289" 
d="M299 522v-81l-313 -168v82z" />
    <glyph glyph-name="pi" unicode="&#x3c0;" horiz-adv-x="777" 
d="M54 361q0 164 87.5 272t247.5 108t247 -108t87 -272t-86.5 -271.5t-247.5 -107.5q-160 0 -247.5 108t-87.5 271zM621 361q0 129 -55 218.5t-177 89.5q-121 0 -177 -89.5t-56 -218.5t55.5 -218t177.5 -89q121 0 176.5 89.5t55.5 217.5zM253 409h271v-72h-271v72z" />
    <glyph glyph-name="integral" unicode="&#x222b;" horiz-adv-x="638" 
d="M263 0v250q0 166 -75.5 283.5t-163.5 117.5h-11v72q126 0 206 -82t105 -210q44 110 121.5 193.5t178.5 98.5v-72q-85 -13 -175 -134t-90 -267v-250h-96z" />
    <glyph glyph-name="ordfeminine" unicode="&#xaa;" horiz-adv-x="422" 
d="M273 533h-18q-54 0 -95 -13.5t-41 -58.5q0 -24 15 -38t39 -14q25 0 54.5 14t45.5 34v76zM402 359q-28 -10 -54 -10q-51 0 -68 52q-24 -24 -58 -38t-66 -14q-50 0 -85.5 28t-35.5 78q0 66 53 102t162 36h23v17q0 38 -20.5 54.5t-59.5 16.5q-33 0 -68.5 -11t-66.5 -30v72
q68 29 152 29q76 0 111.5 -28.5t35.5 -92.5v-159q0 -30 6 -41t39 -11v-50z" />
    <glyph glyph-name="ordmasculine" unicode="&#xba;" horiz-adv-x="422" 
d="M30 545q0 86 44.5 141t136.5 55t136.5 -54.5t44.5 -141.5q0 -89 -47.5 -142.5t-133.5 -53.5q-85 0 -133 54t-48 142zM302 545q0 54 -20.5 95t-70.5 41q-49 0 -70 -40.5t-21 -95.5q0 -53 21 -94.5t70 -41.5t70 40.5t21 95.5z" />
    <glyph glyph-name="Omega" unicode="&#x3a9;" horiz-adv-x="783" 
d="M36 72h199q-65 74 -97 116t-55 97t-23 125q0 134 87 232.5t245 98.5q151 0 241 -95.5t90 -235.5q0 -67 -23 -123t-57 -101t-95 -114h199v-72h-289v72q78 85 120.5 165.5t42.5 178.5q0 109 -61 181t-168 72q-109 0 -169.5 -71t-60.5 -182q0 -96 42 -177t121 -167v-72h-289
v72z" />
    <glyph glyph-name="ae" unicode="&#xe6;" horiz-adv-x="853" 
d="M678 316q0 67 -23.5 110.5t-83.5 43.5q-57 0 -87 -47t-30 -107h224zM452 250q0 -86 46 -138t131 -52q76 0 151 35v-77q-41 -13 -86 -21.5t-92 -8.5q-63 0 -121 27.5t-86 78.5q-38 -44 -88.5 -75t-101.5 -31q-66 0 -110.5 40.5t-44.5 105.5q0 78 68 129t200 51h38v36
q0 64 -18.5 92t-79.5 28q-38 0 -81 -13.5t-81 -33.5v79q44 18 91 29t94 11q51 0 86 -13.5t61 -45.5q29 30 67.5 44.5t81.5 14.5q114 0 158.5 -83.5t44.5 -208.5h-328zM356 257h-46q-56 0 -110 -26.5t-54 -82.5q0 -35 25.5 -58.5t61.5 -23.5q32 0 63 14.5t60 39.5v137z" />
    <glyph glyph-name="oslash" unicode="&#xf8;" horiz-adv-x="614" 
d="M116 71q-31 39 -46.5 89.5t-15.5 104.5q0 110 58.5 193.5t194.5 83.5q77 0 137 -34l26 34h90l-62 -81q31 -37 46.5 -89.5t15.5 -106.5q0 -98 -55 -187.5t-198 -89.5q-77 0 -137 34l-25 -34h-91zM394 442q-38 28 -87 28q-80 0 -115.5 -59.5t-35.5 -145.5q0 -32 4.5 -60
t14.5 -54zM220 88q38 -28 87 -28q80 0 115.5 59.5t35.5 145.5q0 34 -4 62.5t-15 52.5z" />
    <glyph glyph-name="questiondown" unicode="&#xbf;" horiz-adv-x="422" 
d="M300 337v-50q0 -59 -46 -121q-44 -52 -89 -107.5t-45 -102.5q0 -45 37.5 -67t89.5 -22q39 0 79 9.5t78 27.5v-82q-41 -12 -86 -19.5t-85 -7.5q-91 0 -153 38.5t-62 123.5q0 64 93 156.5t93 153.5v70h96zM300 434h-96v96h96v-96z" />
    <glyph glyph-name="exclamdown" unicode="&#xa1;" horiz-adv-x="205" 
d="M150 434h-96v96h96v-96zM150 -36v-157h-96v157l12 373h72z" />
    <glyph glyph-name="logicalnot" unicode="&#xac;" 
d="M27 410h578v-241h-72v169h-506v72z" />
    <glyph glyph-name="radical" unicode="&#x221a;" horiz-adv-x="608" 
d="M18 90h572v-90h-572v90zM93 422h422v-79h-422v79zM45 723h518v-90h-518v90z" />
    <glyph glyph-name="florin" unicode="&#x192;" 
d="M578 650q-51 19 -98 19q-65 0 -94.5 -46.5t-42.5 -116.5l-16 -85h92v-72h-107l-98 -494h-98l98 494h-81v72h95l6 27q39 177 100 235t154 58q51 0 104 -14z" />
    <glyph glyph-name="approxequal" unicode="&#x2248;" horiz-adv-x="304" 
d="M-77 -105q60 -21 72.5 -24.5t30.5 -3.5q53 0 69 29t16 83v33v518h96v-559q0 -80 -42.5 -128t-133.5 -48q-29 0 -54 6t-54 18v76z" />
    <glyph glyph-name="uni2206" unicode="&#x2206;" horiz-adv-x="663" 
d="M9 84l274 639h97l274 -639v-84h-645v84zM549 84l-227 530l-228 -530h455z" />
    <glyph glyph-name="uni2206" unicode="&#x394;" horiz-adv-x="663" 
d="M9 84l274 639h97l274 -639v-84h-645v84zM549 84l-227 530l-228 -530h455z" />
    <glyph glyph-name="guillemotleft" unicode="&#xab;" horiz-adv-x="524" 
d="M344 295l144 -181l-48 -36l-193 217l193 217l48 -36zM151 295l144 -181l-48 -36l-193 217l193 217l48 -36z" />
    <glyph glyph-name="guillemotright" unicode="&#xbb;" horiz-adv-x="524" 
d="M180 295l-144 181l48 36l193 -217l-193 -217l-48 36zM373 295l-144 181l48 36l193 -217l-193 -217l-48 36z" />
    <glyph glyph-name="ellipsis" unicode="&#x2026;" horiz-adv-x="1000" 
d="M106 120h121v-120h-121v120zM439 120h121v-120h-121v120zM772 120h121v-120h-121v120z" />
    <glyph glyph-name="uni00A0" unicode="&#xa0;" horiz-adv-x="250" 
 />
    <glyph glyph-name="Agrave" unicode="&#xc0;" horiz-adv-x="690" 
d="M297 723h96l286 -723h-103l-82 205h-318l-81 -205h-84zM466 277l-131 330l-130 -330h261zM213 964h108l109 -144h-85z" />
    <glyph glyph-name="Atilde" unicode="&#xc3;" horiz-adv-x="690" 
d="M297 723h96l286 -723h-103l-82 205h-318l-81 -205h-84zM466 277l-131 330l-130 -330h261zM182 820q0 36 22 75t71 39q19 0 37 -4.5t37 -14.5t34.5 -16.5t27.5 -6.5q17 0 25.5 11.5t10.5 30.5h60q0 -36 -22 -75t-71 -39q-19 0 -37 4.5t-37 14.5t-34.5 16.5t-27.5 6.5
q-17 0 -25.5 -11.5t-10.5 -30.5h-60z" />
    <glyph glyph-name="Otilde" unicode="&#xd5;" horiz-adv-x="777" 
d="M54 361q0 164 87.5 272t247.5 108t247 -108t87 -272t-86.5 -271.5t-247.5 -107.5q-160 0 -247.5 108t-87.5 271zM621 361q0 129 -55 218.5t-177 89.5q-121 0 -177 -89.5t-56 -218.5t55.5 -218t177.5 -89q121 0 176.5 89.5t55.5 217.5zM226 820q0 36 22 75t71 39
q19 0 37 -4.5t37 -14.5t34.5 -16.5t27.5 -6.5q17 0 25.5 11.5t10.5 30.5h60q0 -36 -22 -75t-71 -39q-19 0 -37 4.5t-37 14.5t-34.5 16.5t-27.5 6.5q-17 0 -25.5 -11.5t-10.5 -30.5h-60z" />
    <glyph glyph-name="OE" unicode="&#x152;" horiz-adv-x="1000" 
d="M554 30q-36 -23 -80 -35.5t-85 -12.5q-160 0 -247.5 108t-87.5 271q0 164 87.5 272t247.5 108q47 0 87.5 -11.5t77.5 -36.5v30h398v-72h-302v-238h254v-72h-254v-269h323v-72h-419v30zM554 495q0 100 -54.5 137t-110.5 37q-122 0 -177 -89t-55 -219q0 -128 55.5 -217.5
t176.5 -89.5q82 0 123.5 53.5t41.5 140.5v247z" />
    <glyph glyph-name="oe" unicode="&#x153;" horiz-adv-x="930" 
d="M528 250q0 -86 46 -138t132 -52q76 0 151 35v-77q-41 -13 -86 -21.5t-92 -8.5q-64 0 -116 22.5t-85 74.5q-31 -50 -72.5 -73.5t-98.5 -23.5q-142 0 -197.5 89.5t-55.5 187.5q0 110 58.5 193.5t194.5 83.5q106 0 169 -97q26 49 72.5 73t105.5 24q114 0 158.5 -83.5
t44.5 -208.5h-329zM432 271q0 82 -27 140.5t-98 58.5q-80 0 -115.5 -59.5t-35.5 -145.5q0 -87 34.5 -146t116.5 -59q57 0 91 48.5t34 162.5zM755 316q0 67 -23.5 110.5t-83.5 43.5q-57 0 -87 -47t-30 -107h224z" />
    <glyph glyph-name="endash" unicode="&#x2013;" horiz-adv-x="500" 
d="M0 325h500v-60h-500v60z" />
    <glyph glyph-name="emdash" unicode="&#x2014;" horiz-adv-x="1000" 
d="M0 325h1000v-60h-1000v60z" />
    <glyph glyph-name="quotedblleft" unicode="&#x201c;" horiz-adv-x="373" 
d="M319 735q-23 -11 -27.5 -33.5t-5.5 -44.5t-1 -31h34v-96h-96v109q0 55 34 91t62 41v-36zM150 735q-23 -11 -27.5 -33.5t-5.5 -44.5t-1 -31h34v-96h-96v109q0 55 34 91t62 41v-36z" />
    <glyph glyph-name="quotedblright" unicode="&#x201d;" horiz-adv-x="373" 
d="M54 566q23 11 27.5 33.5t5.5 44.5t1 31h-34v96h96v-109q0 -55 -34 -91t-62 -41v36zM223 566q23 11 27.5 33.5t5.5 44.5t1 31h-34v96h96v-109q0 -55 -34 -91t-62 -41v36z" />
    <glyph glyph-name="quoteleft" unicode="&#x2018;" horiz-adv-x="229" 
d="M175 627v-120h-121v92q0 74 26 120.5t95 52.5v-37q-29 -8 -37 -30.5t-10 -43t-2 -34.5h49z" />
    <glyph glyph-name="quoteright" unicode="&#x2019;" horiz-adv-x="229" 
d="M54 651v120h121v-92q0 -74 -26 -120.5t-95 -52.5v37q29 8 37 30.5t10 43t2 34.5h-49z" />
    <glyph glyph-name="divide" unicode="&#xf7;" 
d="M262 144h108v-108h-108v108zM27 325h578v-72h-578v72zM262 542h108v-108h-108v108z" />
    <glyph glyph-name="lozenge" unicode="&#x25ca;" horiz-adv-x="705" 
d="M680 458h-133v-458h-96v458h-242v-458h-96v458h-75v72h75v92q0 79 49.5 120t125.5 41q52 0 108 -16v-76q-29 9 -54 14.5t-50 5.5q-44 0 -63.5 -23t-19.5 -56v-102h242v92q0 79 49.5 120t125.5 41q52 0 108 -16v-76q-29 9 -54 14.5t-50 5.5q-44 0 -63.5 -23t-19.5 -56
v-102h133v-72z" />
    <glyph glyph-name="ydieresis" unicode="&#xff;" horiz-adv-x="568" 
d="M225 0l-208 530h104l161 -412l191 412h86l-334 -723h-95zM146 711h84v-84h-84v84zM338 711h84v-84h-84v84z" />
    <glyph glyph-name="Ydieresis" unicode="&#x178;" horiz-adv-x="623" 
d="M254 301l-241 422h111l189 -331l204 331h92l-259 -422v-301h-96v301zM174 904h84v-84h-84v84zM366 904h84v-84h-84v84z" />
    <glyph glyph-name="fraction" unicode="&#x2044;" horiz-adv-x="36" 
d="M236 741h94l-529 -759h-94z" />
    <glyph glyph-name="Euro" unicode="&#x20ac;" 
d="M70 72l-43 43l116 116q-22 28 -33 61t-11 69q0 75 44 131l-116 116l43 43l116 -116q57 43 130 43t131 -43l116 116l42 -43l-116 -116q22 -27 33 -60.5t11 -70.5t-10.5 -69t-33.5 -61l116 -116l-42 -43l-116 116q-58 -43 -131 -43t-130 43zM461 361q0 60 -42.5 102.5
t-102.5 42.5q-61 0 -103 -42t-42 -103q0 -60 42 -102t103 -42q60 0 102.5 42.5t42.5 101.5z" />
    <glyph glyph-name="guilsinglleft" unicode="&#x2039;" horiz-adv-x="331" 
d="M151 295l144 -181l-48 -36l-193 217l193 217l48 -36z" />
    <glyph glyph-name="guilsinglright" unicode="&#x203a;" horiz-adv-x="331" 
d="M180 295l-144 181l48 36l193 -217l-193 -217l-48 36z" />
    <glyph glyph-name="uniFB01" unicode="&#xfb01;" horiz-adv-x="645" 
d="M452 723h96v-96h-96v96zM114 458h-75v72h75v92q0 79 49.5 120t125.5 41q52 0 108 -16v-76q-29 9 -54 14.5t-50 5.5q-44 0 -63.5 -23t-19.5 -56v-102h338v-530h-96v458h-242v-458h-96v458z" />
    <glyph glyph-name="uniFB02" unicode="&#xfb02;" horiz-adv-x="645" 
d="M548 0h-96v689q-59 13 -86 17.5t-73 4.5q-44 0 -63.5 -23t-19.5 -56v-102h133v-72h-133v-458h-96v458h-75v72h75v92q0 79 49.5 120t125.5 41q36 0 78 -4t89 -8h92v-771z" />
    <glyph glyph-name="daggerdbl" unicode="&#x2021;" 
d="M352 168l169 12v-72l-169 12l12 -265h-96l12 265l-169 -12v72l169 -12v242l-169 -12v72l169 -12l-12 265h96l-12 -265l169 12v-72l-169 12v-242z" />
    <glyph glyph-name="periodcentered" unicode="&#xb7;" horiz-adv-x="316" 
d="M97 349h121v-120h-121v120z" />
    <glyph glyph-name="quotesinglbase" unicode="&#x201a;" horiz-adv-x="229" 
d="M54 0v120h121v-92q0 -74 -26 -120.5t-95 -52.5v37q29 8 37 30.5t10 43t2 34.5h-49z" />
    <glyph glyph-name="quotedblbase" unicode="&#x201e;" horiz-adv-x="373" 
d="M54 -109q23 11 27.5 33.5t5.5 44.5t1 31h-34v96h96v-109q0 -55 -34 -91t-62 -41v36zM223 -109q23 11 27.5 33.5t5.5 44.5t1 31h-34v96h96v-109q0 -55 -34 -91t-62 -41v36z" />
    <glyph glyph-name="perthousand" unicode="&#x2030;" horiz-adv-x="1012" 
d="M355 181q0 78 39 129t115 51q75 0 114.5 -51t39.5 -129q0 -79 -39 -130t-115 -51q-75 0 -114.5 52t-39.5 129zM591 181q0 50 -19 91t-63 41q-43 0 -62.5 -42t-19.5 -90q0 -50 19 -91.5t63 -41.5q43 0 62.5 42t19.5 91zM6 543q0 78 39 129t115 51q75 0 114.5 -51
t39.5 -129q0 -79 -39 -130t-115 -51q-75 0 -114.5 52t-39.5 129zM242 543q0 50 -19 91t-63 41q-43 0 -62.5 -42t-19.5 -90q0 -50 19 -91.5t63 -41.5q43 0 62.5 42t19.5 91zM582 741h75l-570 -759h-75zM698 181q0 78 39 129t115 51q75 0 114.5 -51t39.5 -129q0 -79 -39 -130
t-115 -51q-75 0 -114.5 52t-39.5 129zM934 181q0 50 -19 91t-63 41q-43 0 -62.5 -42t-19.5 -90q0 -50 19 -91.5t63 -41.5q43 0 62.5 42t19.5 91z" />
    <glyph glyph-name="Acircumflex" unicode="&#xc2;" horiz-adv-x="690" 
d="M297 723h96l286 -723h-103l-82 205h-318l-81 -205h-84zM466 277l-131 330l-130 -330h261zM344 916l-78 -96h-84l108 144h108l109 -144h-84z" />
    <glyph glyph-name="Ecircumflex" unicode="&#xca;" horiz-adv-x="542" 
d="M96 723h398v-72h-302v-238h254v-72h-254v-269h323v-72h-419v723zM270 916l-78 -96h-84l108 144h108l109 -144h-84z" />
    <glyph glyph-name="Aacute" unicode="&#xc1;" horiz-adv-x="690" 
d="M297 723h96l286 -723h-103l-82 205h-318l-81 -205h-84zM466 277l-131 330l-130 -330h261zM368 964h109l-133 -144h-84z" />
    <glyph glyph-name="Edieresis" unicode="&#xcb;" horiz-adv-x="542" 
d="M96 723h398v-72h-302v-238h254v-72h-254v-269h323v-72h-419v723zM133 904h84v-84h-84v84zM325 904h84v-84h-84v84z" />
    <glyph glyph-name="Egrave" unicode="&#xc8;" horiz-adv-x="542" 
d="M96 723h398v-72h-302v-238h254v-72h-254v-269h323v-72h-419v723zM139 964h108l109 -144h-85z" />
    <glyph glyph-name="Iacute" unicode="&#xcd;" horiz-adv-x="288" 
d="M96 723h96v-723h-96v723zM167 964h109l-133 -144h-84z" />
    <glyph glyph-name="Icircumflex" unicode="&#xce;" horiz-adv-x="288" 
d="M96 723h96v-723h-96v723zM143 916l-78 -96h-84l108 144h108l109 -144h-84z" />
    <glyph glyph-name="Idieresis" unicode="&#xcf;" horiz-adv-x="288" 
d="M96 723h96v-723h-96v723zM6 904h84v-84h-84v84zM198 904h84v-84h-84v84z" />
    <glyph glyph-name="Igrave" unicode="&#xcc;" horiz-adv-x="288" 
d="M96 723h96v-723h-96v723zM12 964h108l109 -144h-85z" />
    <glyph glyph-name="Oacute" unicode="&#xd3;" horiz-adv-x="777" 
d="M54 361q0 164 87.5 272t247.5 108t247 -108t87 -272t-86.5 -271.5t-247.5 -107.5q-160 0 -247.5 108t-87.5 271zM621 361q0 129 -55 218.5t-177 89.5q-121 0 -177 -89.5t-56 -218.5t55.5 -218t177.5 -89q121 0 176.5 89.5t55.5 217.5zM412 964h109l-133 -144h-84z" />
    <glyph glyph-name="Ocircumflex" unicode="&#xd4;" horiz-adv-x="777" 
d="M54 361q0 164 87.5 272t247.5 108t247 -108t87 -272t-86.5 -271.5t-247.5 -107.5q-160 0 -247.5 108t-87.5 271zM621 361q0 129 -55 218.5t-177 89.5q-121 0 -177 -89.5t-56 -218.5t55.5 -218t177.5 -89q121 0 176.5 89.5t55.5 217.5zM388 916l-78 -96h-84l108 144h108
l109 -144h-84z" />
    <glyph glyph-name="uniF8FF" unicode="&#xf8ff;" horiz-adv-x="982" 
d="M548 458v-458h-96v458h-242v-458h-96v458h-75v72h75v92q0 79 49.5 120t125.5 41q52 0 108 -16v-76q-29 9 -54 14.5t-50 5.5q-44 0 -63.5 -23t-19.5 -56v-102h242v92q0 79 49.5 120t125.5 41q52 0 108 -16v-76q-29 9 -54 14.5t-50 5.5q-44 0 -63.5 -23t-19.5 -56v-102h338
v-530h-96v458h-242zM790 723h96v-96h-96v96z" />
    <glyph glyph-name="uniF8FF" unicode="&#xe01e;" horiz-adv-x="982" 
d="M548 458v-458h-96v458h-242v-458h-96v458h-75v72h75v92q0 79 49.5 120t125.5 41q52 0 108 -16v-76q-29 9 -54 14.5t-50 5.5q-44 0 -63.5 -23t-19.5 -56v-102h242v92q0 79 49.5 120t125.5 41q52 0 108 -16v-76q-29 9 -54 14.5t-50 5.5q-44 0 -63.5 -23t-19.5 -56v-102h338
v-530h-96v458h-242zM790 723h96v-96h-96v96z" />
    <glyph glyph-name="Ograve" unicode="&#xd2;" horiz-adv-x="777" 
d="M54 361q0 164 87.5 272t247.5 108t247 -108t87 -272t-86.5 -271.5t-247.5 -107.5q-160 0 -247.5 108t-87.5 271zM621 361q0 129 -55 218.5t-177 89.5q-121 0 -177 -89.5t-56 -218.5t55.5 -218t177.5 -89q121 0 176.5 89.5t55.5 217.5zM257 964h108l109 -144h-85z" />
    <glyph glyph-name="Uacute" unicode="&#xda;" horiz-adv-x="693" 
d="M186 723v-447q0 -109 34.5 -165.5t137.5 -56.5q101 0 130.5 55t29.5 165v449h84v-483q0 -122 -60 -190t-188 -68q-133 0 -198.5 66.5t-65.5 191.5v483h96zM370 964h109l-133 -144h-84z" />
    <glyph glyph-name="Ucircumflex" unicode="&#xdb;" horiz-adv-x="693" 
d="M186 723v-447q0 -109 34.5 -165.5t137.5 -56.5q101 0 130.5 55t29.5 165v449h84v-483q0 -122 -60 -190t-188 -68q-133 0 -198.5 66.5t-65.5 191.5v483h96zM346 916l-78 -96h-84l108 144h108l109 -144h-84z" />
    <glyph glyph-name="Ugrave" unicode="&#xd9;" horiz-adv-x="693" 
d="M186 723v-447q0 -109 34.5 -165.5t137.5 -56.5q101 0 130.5 55t29.5 165v449h84v-483q0 -122 -60 -190t-188 -68q-133 0 -198.5 66.5t-65.5 191.5v483h96zM215 964h108l109 -144h-85z" />
    <glyph glyph-name="dotlessi" unicode="&#x131;" horiz-adv-x="289" 
d="M96 530h96v-530h-96v530z" />
    <glyph glyph-name="circumflex" unicode="&#x2c6;" horiz-adv-x="614" 
d="M306 723l-78 -96h-84l108 144h108l109 -144h-84z" />
    <glyph glyph-name="tilde" unicode="&#x2dc;" horiz-adv-x="614" 
d="M144 627q0 36 22 75t71 39q19 0 37 -4.5t37 -14.5t34.5 -16.5t27.5 -6.5q17 0 25.5 11.5t10.5 30.5h60q0 -36 -22 -75t-71 -39q-19 0 -37 4.5t-37 14.5t-34.5 16.5t-27.5 6.5q-17 0 -25.5 -11.5t-10.5 -30.5h-60z" />
    <glyph glyph-name="macron" unicode="&#xaf;" horiz-adv-x="614" 
d="M168 699h278v-72h-278v72z" />
    <glyph glyph-name="breve" unicode="&#x2d8;" horiz-adv-x="614" 
d="M204 771q5 -36 34 -54t68 -18q41 0 69.5 17.5t33.5 54.5h60q-6 -64 -52 -104t-111 -40q-67 0 -114.5 40t-47.5 104h60z" />
    <glyph glyph-name="dotaccent" unicode="&#x2d9;" horiz-adv-x="614" 
d="M259 723h96v-96h-96v96z" />
    <glyph glyph-name="ring" unicode="&#x2da;" horiz-adv-x="614" 
d="M229 705q0 32 23 55t55 23t55 -23t23 -55t-23 -55t-55 -23t-55 23t-23 55zM349 705q0 18 -12 30t-30 12t-30 -12t-12 -30t12 -30t30 -12t30 12t12 30z" />
    <glyph glyph-name="cedilla" unicode="&#xb8;" horiz-adv-x="614" 
d="M249 -144q7 -1 14 -2.5t18 -1.5q20 0 34.5 8t14.5 26q0 20 -19 31.5t-41 14.5l42 68h44l-30 -50q34 -6 55 -25t21 -50q0 -35 -29 -53t-65 -18q-14 0 -29.5 3t-29.5 8v41z" />
    <glyph glyph-name="hungarumlaut" unicode="&#x2dd;" horiz-adv-x="614" 
d="M301 771h72l-122 -144h-58zM417 771h71l-121 -144h-58z" />
    <glyph glyph-name="ogonek" unicode="&#x2db;" horiz-adv-x="614" 
d="M373 0q-20 -11 -39 -32t-19 -38q0 -18 14.5 -26t35.5 -8q22 0 43 6v-38q-32 -16 -63 -16q-39 0 -70.5 15.5t-31.5 52.5q0 28 19.5 47.5t52.5 36.5h58z" />
    <glyph glyph-name="caron" unicode="&#x2c7;" horiz-adv-x="614" 
d="M307 675l78 96h84l-108 -144h-108l-109 144h84z" />
    <glyph glyph-name="glyph226" horiz-adv-x="533" 
d="M96 307l-108 -60v81l108 60v335h96v-284l110 59v-82l-110 -58v-286h326v-72h-422v307z" />
    <glyph glyph-name="glyph227" horiz-adv-x="289" 
d="M96 331l-109 -58v82l109 59v357h96v-305l110 60v-85l-110 -59v-382h-96v331z" />
    <glyph glyph-name="glyph228" horiz-adv-x="539" 
d="M51 112q61 -29 106 -43.5t97 -14.5q56 0 95.5 31.5t39.5 85.5q0 72 -86 130q-81 49 -161 98q-87 64 -87 150q0 65 52.5 128.5t164.5 63.5q43 0 85.5 -7t83.5 -22v-89q-52 20 -88 33t-83 13q-60 0 -92.5 -33t-32.5 -70q0 -59 85 -112.5t167 -103.5q88 -69 88 -162
q0 -72 -58 -139t-188 -67q-46 0 -90 8t-98 25v97zM270 868l78 96h84l-108 -144h-108l-109 144h84z" />
    <glyph glyph-name="glyph229" horiz-adv-x="510" 
d="M77 107q38 -19 82 -33t80 -14q38 0 68 20.5t30 57.5q0 44 -64 74.5t-126 60.5q-67 45 -67 121q0 73 49.5 110.5t133.5 37.5q32 0 68 -6t62 -10v-80q-38 12 -67 18t-62 6q-37 0 -65.5 -16.5t-28.5 -51.5q0 -39 92.5 -83t131.5 -70.5t39 -99.5q0 -78 -58.5 -119.5
t-140.5 -41.5q-36 0 -74 8t-83 22v89zM255 675l78 96h84l-108 -144h-108l-109 144h84z" />
    <glyph glyph-name="glyph230" horiz-adv-x="605" 
d="M48 78l392 573h-368v72h485v-72l-392 -573h392v-78h-509v78zM303 868l78 96h84l-108 -144h-108l-109 144h84z" />
    <glyph glyph-name="glyph231" horiz-adv-x="573" 
d="M60 72l329 386h-314v72h432v-72l-328 -386h334v-72h-453v72zM287 675l78 96h84l-108 -144h-108l-109 144h84z" />
    <glyph glyph-name="glyph232" horiz-adv-x="265" 
d="M96 217h72v-362h-72v362zM96 771h72v-361h-72v361z" />
    <glyph glyph-name="glyph233" horiz-adv-x="749" 
d="M96 332h-108v72h108v319h264q162 0 248.5 -91.5t86.5 -253.5q0 -159 -86 -268.5t-250 -109.5h-263v332zM192 404h168v-72h-168v-260h163q96 0 167 67t71 230q0 134 -67 208t-201 74h-133v-247z" />
    <glyph glyph-name="glyph234" horiz-adv-x="602" 
d="M153 543l-40 59l92 63q-32 17 -71.5 25.5t-79.5 8.5v72q66 0 123 -13t105 -41l83 55l41 -60l-61 -40q95 -70 149 -173.5t54 -219.5q0 -124 -64.5 -207.5t-184.5 -83.5q-116 0 -181 78.5t-65 197.5q0 114 65.5 190t179.5 76q33 0 65 -9q-15 27 -39.5 52.5t-52.5 48.5z
M452 265q0 85 -32.5 139t-113.5 54q-77 0 -114 -56t-37 -137q0 -85 35.5 -145t115.5 -60q52 0 99 45.5t47 159.5z" />
    <glyph glyph-name="glyph235" horiz-adv-x="623" 
d="M254 301l-241 422h111l189 -331l204 331h92l-259 -422v-301h-96v301zM335 964h109l-133 -144h-84z" />
    <glyph glyph-name="glyph236" horiz-adv-x="568" 
d="M225 0l-208 530h104l161 -412l191 412h86l-334 -723h-95zM307 771h109l-133 -144h-84z" />
    <glyph glyph-name="glyph237" horiz-adv-x="553" 
d="M96 723h96v-145h138q87 0 144.5 -45.5t57.5 -142.5q0 -140 -94 -193.5t-246 -53.5v-143h-96v723zM192 215q118 0 178 36t60 131q0 63 -37.5 93.5t-88.5 30.5h-112v-291z" />
    <glyph glyph-name="glyph238" horiz-adv-x="630" 
d="M96 675h96v-145l-6 -99h6q27 53 72.5 82t104.5 29q106 0 156 -75t50 -187q0 -116 -56.5 -204t-166.5 -88q-51 0 -89.5 17t-70.5 55h-6l6 -72v-181h-96v868zM192 127q41 -36 70 -51.5t74 -15.5q73 0 105 63.5t32 145.5q0 104 -33.5 146.5t-88.5 42.5q-45 0 -85 -24
t-74 -64v-243z" />
    <glyph glyph-name="glyph239" 
d="M27 325h578v-72h-578v72z" />
    <glyph glyph-name="glyph240" 
d="M265 289l-238 238l51 51l238 -238l238 238l51 -51l-238 -238l238 -238l-51 -51l-238 238l-238 -238l-51 51z" />
    <glyph glyph-name="glyph241" horiz-adv-x="422" 
d="M169 669h-67v54l151 12v-374h-84v308z" />
    <glyph glyph-name="glyph242" horiz-adv-x="422" 
d="M66 428q13 30 109 100t96 102q0 28 -25 39.5t-59 11.5q-28 0 -60 -8.5t-61 -23.5v69q69 23 138 23q75 0 116 -29t41 -75q0 -52 -33 -79.5t-100.5 -65.5t-81.5 -64h221v-67h-301v67z" />
    <glyph glyph-name="glyph243" horiz-adv-x="422" 
d="M75 719q72 22 143 22q55 0 99 -20t44 -69q0 -41 -34 -64.5t-81 -32.5q47 -2 83.5 -29t36.5 -72q0 -40 -40 -72.5t-113 -32.5q-63 0 -138 20v69q33 -13 65 -21t62 -8q29 0 51.5 13t22.5 39q0 39 -40.5 51t-92.5 12h-14v60h10q55 0 93.5 9t38.5 47q0 23 -18 32t-42 9
q-32 0 -66.5 -7.5t-69.5 -21.5v67z" />
    <glyph glyph-name="glyph244" horiz-adv-x="801" 
d="M108 669h-67v54l151 12v-374h-84v308zM452 67q13 30 109 100t96 102q0 28 -25 39.5t-59 11.5q-28 0 -60 -8.5t-61 -23.5v69q69 23 138 23q75 0 116 -29t41 -75q0 -52 -33 -79.5t-100.5 -65.5t-81.5 -64h221v-67h-301v67zM547 741h94l-529 -759h-94z" />
    <glyph glyph-name="glyph245" horiz-adv-x="801" 
d="M114 669h-67v54l151 12v-374h-84v308zM596 96h-181v76l172 195h93v-211h60v-60h-60v-96h-84v96zM596 156v131l-118 -131h118zM577 741h94l-529 -759h-94z" />
    <glyph glyph-name="glyph246" horiz-adv-x="873" 
d="M669 156v131l-119 -131h119zM668 741h94l-529 -759h-94zM60 719q72 22 143 22q55 0 99 -20t44 -69q0 -41 -34 -64.5t-81 -32.5q47 -2 83.5 -29t36.5 -72q0 -40 -40 -72.5t-113 -32.5q-63 0 -138 20v69q33 -13 65 -21t62 -8q29 0 51.5 13t22.5 39q0 39 -40.5 51t-92.5 12
h-14v60h10q55 0 93.5 9t38.5 47q0 23 -18 32t-42 9q-32 0 -66.5 -7.5t-69.5 -21.5v67zM669 96h-181v76l172 195h93v-211h60v-60h-60v-96h-84v96z" />
  </font>
</defs>
</svg>
