<?xml version="1.0" standalone="no"?>
<!DOCTYPE svg PUBLIC "-//W3C//DTD SVG 1.1//EN" "http://www.w3.org/Graphics/SVG/1.1/DTD/svg11.dtd" >
<svg>
<metadata>
Created by FontForge 20110222 at Fri Jun 13 05:10:20 2014
 By Orthosie Webhosting
Copyright (c) 1987 Adobe Systems Incorporated. All rights reserved.Lucida is a registered trademark of Bigelow &#38; Holmes.
</metadata>
<defs>
<font id="LucidaSans-Bold" horiz-adv-x="687" >
  <font-face 
    font-family="LucidaSans-Bold"
    font-weight="700"
    font-stretch="normal"
    units-per-em="1000"
    panose-1="2 0 8 3 0 0 0 0 0 0"
    ascent="800"
    descent="-200"
    x-height="542"
    cap-height="723"
    bbox="-306 -205 1295 964"
    underline-thickness="60"
    underline-position="0"
    unicode-range="U+000D-FB02"
  />
<missing-glyph horiz-adv-x="800" 
d="M50 0v800h700v-800h-700zM700 50v700h-600v-700h600z" />
    <glyph glyph-name=".notdef" horiz-adv-x="800" 
d="M50 0v800h700v-800h-700zM700 50v700h-600v-700h600z" />
    <glyph glyph-name=".notdef" horiz-adv-x="800" 
d="M50 0v800h700v-800h-700zM700 50v700h-600v-700h600z" />
    <glyph glyph-name=".notdef" horiz-adv-x="800" 
d="M50 0v800h700v-800h-700zM700 50v700h-600v-700h600z" />
    <glyph glyph-name=".notdef" horiz-adv-x="800" 
d="M50 0v800h700v-800h-700zM700 50v700h-600v-700h600z" />
    <glyph glyph-name=".notdef" horiz-adv-x="800" 
d="M50 0v800h700v-800h-700zM700 50v700h-600v-700h600z" />
    <glyph glyph-name=".notdef" horiz-adv-x="800" 
d="M50 0v800h700v-800h-700zM700 50v700h-600v-700h600z" />
    <glyph glyph-name=".notdef" horiz-adv-x="800" 
d="M50 0v800h700v-800h-700zM700 50v700h-600v-700h600z" />
    <glyph glyph-name=".notdef" horiz-adv-x="800" 
d="M50 0v800h700v-800h-700zM700 50v700h-600v-700h600z" />
    <glyph glyph-name=".notdef" horiz-adv-x="800" 
d="M50 0v800h700v-800h-700zM700 50v700h-600v-700h600z" />
    <glyph glyph-name=".notdef" horiz-adv-x="800" 
d="M50 0v800h700v-800h-700zM700 50v700h-600v-700h600z" />
    <glyph glyph-name=".notdef" horiz-adv-x="800" 
d="M50 0v800h700v-800h-700zM700 50v700h-600v-700h600z" />
    <glyph glyph-name=".notdef" horiz-adv-x="800" 
d="M50 0v800h700v-800h-700zM700 50v700h-600v-700h600z" />
    <glyph glyph-name=".notdef" horiz-adv-x="800" 
d="M50 0v800h700v-800h-700zM700 50v700h-600v-700h600z" />
    <glyph glyph-name=".notdef" horiz-adv-x="800" 
d="M50 0v800h700v-800h-700zM700 50v700h-600v-700h600z" />
    <glyph glyph-name=".notdef" horiz-adv-x="800" 
d="M50 0v800h700v-800h-700zM700 50v700h-600v-700h600z" />
    <glyph glyph-name=".notdef" horiz-adv-x="800" 
d="M50 0v800h700v-800h-700zM700 50v700h-600v-700h600z" />
    <glyph glyph-name=".notdef" horiz-adv-x="800" 
d="M50 0v800h700v-800h-700zM700 50v700h-600v-700h600z" />
    <glyph glyph-name=".notdef" horiz-adv-x="800" 
d="M50 0v800h700v-800h-700zM700 50v700h-600v-700h600z" />
    <glyph glyph-name=".notdef" horiz-adv-x="800" 
d="M50 0v800h700v-800h-700zM700 50v700h-600v-700h600z" />
    <glyph glyph-name=".notdef" horiz-adv-x="800" 
d="M50 0v800h700v-800h-700zM700 50v700h-600v-700h600z" />
    <glyph glyph-name=".notdef" unicode="&#xa;" horiz-adv-x="800" 
d="M50 0v800h700v-800h-700zM700 50v700h-600v-700h600z" />
    <glyph glyph-name=".notdef" horiz-adv-x="800" 
d="M50 0v800h700v-800h-700zM700 50v700h-600v-700h600z" />
    <glyph glyph-name=".notdef" horiz-adv-x="800" 
d="M50 0v800h700v-800h-700zM700 50v700h-600v-700h600z" />
    <glyph glyph-name=".notdef" horiz-adv-x="800" 
d="M50 0v800h700v-800h-700zM700 50v700h-600v-700h600z" />
    <glyph glyph-name=".notdef" horiz-adv-x="800" 
d="M50 0v800h700v-800h-700zM700 50v700h-600v-700h600z" />
    <glyph glyph-name=".notdef" horiz-adv-x="800" 
d="M50 0v800h700v-800h-700zM700 50v700h-600v-700h600z" />
    <glyph glyph-name=".notdef" horiz-adv-x="800" 
d="M50 0v800h700v-800h-700zM700 50v700h-600v-700h600z" />
    <glyph glyph-name=".notdef" horiz-adv-x="800" 
d="M50 0v800h700v-800h-700zM700 50v700h-600v-700h600z" />
    <glyph glyph-name="uni001D" horiz-adv-x="0" 
 />
    <glyph glyph-name="uni001D" horiz-adv-x="0" 
 />
    <glyph glyph-name="uni001D" horiz-adv-x="0" 
 />
    <glyph glyph-name="uni000D" unicode="&#xd;" horiz-adv-x="343" 
 />
    <glyph glyph-name="space" unicode=" " horiz-adv-x="343" 
 />
    <glyph glyph-name="space" unicode="&#x9;" horiz-adv-x="343" 
 />
    <glyph glyph-name="exclam" unicode="!" horiz-adv-x="265" 
d="M36 144h193v-144h-193v144zM36 566v157h193v-157l-36 -349h-121z" />
    <glyph glyph-name="quotedbl" unicode="&#x22;" horiz-adv-x="530" 
d="M42 771h193l-48 -337h-109zM307 771h193l-48 -337h-109z" />
    <glyph glyph-name="numbersign" unicode="#" 
d="M152 199h-121l17 84h125l39 157h-133l17 84h137l50 199h87l-50 -199h128l49 199h87l-49 -199h121l-17 -84h-125l-40 -157h134l-17 -84h-138l-49 -199h-87l49 199h-127l-50 -199h-87zM387 283l40 157h-128l-39 -157h127z" />
    <glyph glyph-name="dollar" unicode="$" 
d="M374 114q23 5 38.5 22t15.5 41q0 23 -14 40.5t-40 40.5v-144zM322 613q-25 -10 -35 -22t-10 -38q0 -20 12 -35t33 -28v123zM402 819v-97q30 0 50 -3.5t104 -25.5v-118q-34 18 -72.5 28.5t-81.5 15.5v-181q99 -64 146.5 -113t47.5 -121q0 -86 -53 -143.5t-141 -57.5v-99
h-108v99q-36 0 -81 6.5t-122 26.5v130q50 -24 99 -38.5t104 -19.5v205q-105 61 -145 115.5t-40 106.5q0 76 53 126.5t132 60.5v97h108z" />
    <glyph glyph-name="percent" unicode="%" horiz-adv-x="898" 
d="M500 181q0 86 51 133t139 47q87 0 138.5 -46.5t51.5 -133.5t-51 -134t-139 -47t-139 47t-51 134zM735 181q0 33 -9 58.5t-36 25.5t-36 -25.5t-9 -58.5t9 -59t36 -26q26 0 35.5 26.5t9.5 58.5zM18 543q0 86 51 133t139 47q87 0 138.5 -46.5t51.5 -133.5t-51 -134t-139 -47
t-139 47t-51 134zM253 543q0 33 -9 58.5t-36 25.5t-36 -25.5t-9 -58.5t9 -59t36 -26q26 0 35.5 26.5t9.5 58.5zM672 741h120l-566 -759h-121z" />
    <glyph glyph-name="ampersand" unicode="&#x26;" horiz-adv-x="792" 
d="M446 576q0 25 -15 41t-40 16q-23 0 -38.5 -14.5t-15.5 -37.5q0 -19 5.5 -32.5t32.5 -58.5q29 11 50 35t21 51zM497 34q-85 -52 -182 -52q-113 0 -199 61.5t-86 165.5q0 80 50 132.5t135 90.5q-28 46 -43.5 79.5t-15.5 68.5q0 67 59.5 114t163.5 47q106 0 161.5 -49
t55.5 -110q0 -48 -34 -89.5t-127 -79.5l125 -193q30 39 42 91t12 111h150q0 -81 -37 -156.5t-100 -133.5l102 -132h-204zM280 340q-29 -15 -49 -41.5t-20 -57.5q0 -58 37.5 -101.5t94.5 -43.5q47 0 81 25z" />
    <glyph glyph-name="quotesingle" unicode="'" horiz-adv-x="265" 
d="M42 771h193l-48 -337h-109z" />
    <glyph glyph-name="parenleft" unicode="(" horiz-adv-x="386" 
d="M331 663q-53 -54 -77.5 -153.5t-24.5 -196.5q0 -99 23.5 -196t78.5 -153v-121q-129 49 -212 187.5t-83 282.5q0 145 82.5 282.5t212.5 187.5v-120z" />
    <glyph glyph-name="parenright" unicode=")" horiz-adv-x="386" 
d="M55 -37q53 54 77.5 153.5t24.5 196.5q0 99 -23.5 196t-78.5 153v121q129 -49 212 -187.5t83 -282.5q0 -145 -82.5 -282.5t-212.5 -187.5v120z" />
    <glyph glyph-name="asterisk" unicode="*" horiz-adv-x="464" 
d="M427 529h-137q2 17 -2 30.5t-16 25.5l112 78zM283 352l-45 129q33 6 49 36l108 -83zM69 434l108 83q17 -30 49 -36l-45 -129zM80 663l112 -78q-18 -18 -18 -47v-9h-137zM301 723l-39 -131q-14 7 -30 7t-30 -7l-39 131h138z" />
    <glyph glyph-name="plus" unicode="+" 
d="M289 235h-235v108h235v235h108v-235h236v-108h-236v-235h-108v235z" />
    <glyph glyph-name="comma" unicode="," horiz-adv-x="343" 
d="M75 0v193h193v-167q0 -72 -55.5 -121.5t-137.5 -49.5v73q34 0 53 16t19 48v8h-72z" />
    <glyph glyph-name="hyphen" unicode="-" horiz-adv-x="289" 
d="M36 367h217v-108h-217v108z" />
    <glyph glyph-name="period" unicode="." horiz-adv-x="343" 
d="M75 193h193v-193h-193v193z" />
    <glyph glyph-name="slash" unicode="/" horiz-adv-x="596" 
d="M450 771h140l-443 -916h-141z" />
    <glyph glyph-name="zero" unicode="0" 
d="M36 361q0 134 70.5 257t236.5 123t237 -123t71 -257q0 -137 -71.5 -258t-236.5 -121q-164 0 -235.5 121.5t-71.5 257.5zM446 374q0 134 -22.5 196.5t-80.5 62.5q-56 0 -79 -63.5t-23 -195.5q0 -143 20 -213.5t82 -70.5t82.5 71.5t20.5 212.5z" />
    <glyph glyph-name="one" unicode="1" 
d="M259 614h-96v97l289 30v-741h-193v614z" />
    <glyph glyph-name="two" unicode="2" 
d="M60 144q31 36 129.5 113.5t151 139t52.5 134.5q0 51 -34.5 73.5t-87.5 22.5q-49 0 -94 -12.5t-98 -37.5v127q64 18 122 27.5t117 9.5q113 0 196.5 -49t83.5 -154q0 -83 -48.5 -131.5t-156.5 -131t-122 -131.5h325v-144h-536v144z" />
    <glyph glyph-name="three" unicode="3" 
d="M162 323v108h68q167 0 167 118q0 44 -31 64t-80 20q-94 0 -181 -41v113q113 36 223 36q118 0 190 -43.5t72 -130.5q0 -71 -45.5 -117.5t-118.5 -64.5q78 -15 138 -69t60 -128q0 -79 -66 -142.5t-237 -63.5q-62 0 -116 5t-110 19v127q52 -21 99.5 -32t96.5 -11
q53 0 90.5 24.5t37.5 74.5q0 66 -55 100t-137 34h-65z" />
    <glyph glyph-name="four" unicode="4" 
d="M386 178h-344v144l338 401h174v-401h73v-144h-73v-178h-168v178zM386 322v238l-202 -238h202z" />
    <glyph glyph-name="five" unicode="5" 
d="M127 132q53 -19 93.5 -30.5t78.5 -11.5q50 0 82.5 31.5t32.5 83.5q0 82 -64.5 113.5t-157.5 31.5q-24 0 -52 -5v378h461v-144h-331l-19 -121h37q126 0 228.5 -60t102.5 -183q0 -100 -76 -166.5t-221 -66.5q-44 0 -93 7t-102 20v123z" />
    <glyph glyph-name="six" unicode="6" 
d="M443 219q0 56 -24.5 97.5t-77.5 41.5q-48 0 -75.5 -40t-27.5 -91q0 -54 26.5 -95.5t77.5 -41.5q52 0 76.5 37t24.5 92zM238 392q22 36 69.5 55t98.5 19q98 0 164 -64t66 -162q0 -91 -70.5 -174.5t-215.5 -83.5q-153 0 -235 98.5t-82 267.5q0 164 88.5 278.5t261.5 114.5
q105 0 214 -25v-127q-44 21 -91 32.5t-93 11.5q-102 0 -144.5 -81t-42.5 -160h12z" />
    <glyph glyph-name="seven" unicode="7" 
d="M130 723h524v-144q-124 -123 -212 -284t-88 -295h-199q0 85 53 181t138 199.5t163 198.5h-379v144z" />
    <glyph glyph-name="eight" unicode="8" 
d="M230 207q0 -52 41 -86t93 -34q39 0 73 23.5t34 60.5q0 41 -48 75t-134 78q-28 -25 -43.5 -53t-15.5 -64zM199 381q-46 26 -75.5 73t-29.5 98q0 68 62.5 128.5t198.5 60.5q112 0 177.5 -44.5t65.5 -122.5q0 -53 -29.5 -94t-80.5 -80q65 -36 105.5 -85.5t40.5 -112.5
q0 -77 -69 -148.5t-228 -71.5q-117 0 -200.5 49.5t-83.5 141.5q0 65 41.5 120.5t104.5 87.5zM435 543q0 42 -25 66t-67 24q-34 0 -60 -16.5t-26 -49.5q0 -42 52 -70.5t83 -44.5q21 22 32 43t11 48z" />
    <glyph glyph-name="nine" unicode="9" 
d="M244 504q0 -56 24.5 -97.5t77.5 -41.5q48 0 75.5 40t27.5 91q0 54 -26.5 95.5t-77.5 41.5q-52 0 -76.5 -37t-24.5 -92zM449 331q-22 -36 -69.5 -55t-98.5 -19q-98 0 -164 64t-66 162q0 91 70.5 174.5t215.5 83.5q153 0 235 -98.5t82 -267.5q0 -164 -88.5 -278.5
t-261.5 -114.5q-105 0 -214 25v127q44 -21 91 -32.5t93 -11.5q102 0 144.5 81t42.5 160h-12z" />
    <glyph glyph-name="colon" unicode=":" horiz-adv-x="343" 
d="M75 193h193v-193h-193v193zM75 542h193v-193h-193v193z" />
    <glyph glyph-name="semicolon" unicode=";" horiz-adv-x="343" 
d="M75 0v193h193v-167q0 -72 -55.5 -121.5t-137.5 -49.5v73q34 0 53 16t19 48v8h-72zM75 542h193v-193h-193v193z" />
    <glyph glyph-name="less" unicode="&#x3c;" 
d="M54 289l579 289v-121l-336 -168l336 -168v-121z" />
    <glyph glyph-name="equal" unicode="=" 
d="M54 229h579v-108h-579v108zM54 457h579v-108h-579v108z" />
    <glyph glyph-name="greater" unicode="&#x3e;" 
d="M633 289l-579 -289v121l336 168l-336 168v121z" />
    <glyph glyph-name="question" unicode="?" horiz-adv-x="572" 
d="M42 709q44 16 97.5 24t104.5 8q113 0 202.5 -36t89.5 -132q0 -54 -30 -88.5t-80 -81t-66.5 -77.5t-16.5 -72v-37h-193q0 46 20.5 77t65.5 79.5t67 82.5t22 74q0 46 -27.5 68.5t-74.5 22.5q-45 0 -85.5 -12.5t-95.5 -38.5v139zM150 144h193v-144h-193v144z" />
    <glyph glyph-name="at" unicode="@" horiz-adv-x="833" 
d="M497 485q-28 19 -66 19q-73 0 -107.5 -75.5t-34.5 -141.5q0 -19 7 -35.5t24 -16.5q27 0 81 61t78 102zM566 336q-4 -19 -7.5 -41t-3.5 -34q0 -35 39 -35q49 0 94 62.5t45 148.5q0 100 -73 166t-174 66q-169 0 -277.5 -126t-108.5 -260q0 -78 56.5 -153.5t180.5 -75.5
q82 0 156 35l24 -66q-76 -41 -168 -41q-174 0 -247.5 99.5t-73.5 199.5q0 182 137 321t316 139q136 0 230 -84.5t94 -219.5q0 -121 -73.5 -206.5t-192.5 -85.5q-35 0 -56 10t-21 41q0 22 7 50t18 61h-15q-34 -61 -90 -111.5t-114 -50.5q-41 0 -60 34.5t-19 78.5
q0 105 76 208t177 103q5 0 45 -5t51 -5h72z" />
    <glyph glyph-name="A" unicode="A" horiz-adv-x="773" 
d="M290 723h193l277 -723h-194l-70 184h-283l-71 -184h-129zM452 298l-98 256l-98 -256h196z" />
    <glyph glyph-name="B" unicode="B" horiz-adv-x="669" 
d="M84 0v723h309q91 0 147.5 -39.5t56.5 -124.5q0 -73 -56.5 -117t-136.5 -63q94 -17 158.5 -66.5t64.5 -135.5q0 -69 -52 -123t-172 -54h-319zM259 123q11 -2 35.5 -2.5t42.5 -0.5q39 0 68 18.5t29 61.5q0 64 -46 90t-129 26v-193zM259 434q16 -4 36 -4q56 0 82.5 30
t26.5 74t-24 56.5t-63 12.5h-58v-169z" />
    <glyph glyph-name="C" unicode="C" horiz-adv-x="726" 
d="M686 578q-54 20 -108 31.5t-107 11.5q-121 0 -175.5 -72.5t-54.5 -182.5q0 -124 64 -194t186 -70q51 0 102.5 13.5t104.5 38.5v-133q-118 -39 -270 -39q-179 0 -285.5 100.5t-106.5 278.5t107 279t285 101q146 0 258 -24v-139z" />
    <glyph glyph-name="D" unicode="D" horiz-adv-x="819" 
d="M84 723h394q108 0 206.5 -79t98.5 -270q0 -182 -96 -278t-244 -96h-359v723zM277 127q27 -3 48.5 -5t44.5 -2q114 0 161 70.5t47 176.5q0 97 -43.5 166.5t-159.5 69.5h-98v-476z" />
    <glyph glyph-name="E" unicode="E" horiz-adv-x="645" 
d="M84 723h494v-120h-301v-176h247v-108h-247v-199h325v-120h-518v723z" />
    <glyph glyph-name="F" unicode="F" horiz-adv-x="602" 
d="M84 723h500v-120h-307v-200h250v-108h-250v-295h-193v723z" />
    <glyph glyph-name="G" unicode="G" horiz-adv-x="759" 
d="M687 17q-115 -35 -259 -35q-179 0 -285.5 100.5t-106.5 278.5t107 279t285 101q146 0 258 -24v-139q-54 20 -108 31.5t-107 11.5q-121 0 -175.5 -72.5t-54.5 -182.5q0 -125 64 -194.5t189 -69.5v238h193v-323z" />
    <glyph glyph-name="H" unicode="H" horiz-adv-x="813" 
d="M84 723h193v-284h259v284h193v-723h-193v319h-259v-319h-193v723z" />
    <glyph glyph-name="I" unicode="I" horiz-adv-x="361" 
d="M84 723h193v-723h-193v723z" />
    <glyph glyph-name="J" unicode="J" horiz-adv-x="501" 
d="M12 3q34 -13 67 -20.5t65 -7.5q57 0 68.5 30.5t11.5 98.5v619h193v-651q0 -98 -55 -157.5t-188 -59.5q-90 0 -162 25v123z" />
    <glyph glyph-name="K" unicode="K" horiz-adv-x="753" 
d="M84 723h193v-347l256 347h150l-232 -314l290 -409h-231l-231 346l-2 -346h-193v723z" />
    <glyph glyph-name="L" unicode="L" horiz-adv-x="620" 
d="M84 723h193v-603h325v-120h-518v723z" />
    <glyph glyph-name="M" unicode="M" horiz-adv-x="940" 
d="M84 723h249l151 -461l156 461h216v-723h-175v506l-157 -458h-140l-153 471l-2 -519h-145v723z" />
    <glyph glyph-name="N" unicode="N" horiz-adv-x="783" 
d="M84 723h161l307 -434l2 434h145v-723h-160l-308 434l-2 -434h-145v723z" />
    <glyph glyph-name="O" unicode="O" horiz-adv-x="855" 
d="M428 741q179 0 285 -101t106 -279q0 -177 -106 -278t-285 -101t-285.5 100.5t-106.5 278.5t107 279t285 101zM428 102q93 0 139.5 78.5t46.5 180.5q0 101 -46.5 180.5t-139.5 79.5q-94 0 -140.5 -78.5t-46.5 -181.5q0 -101 46 -180t141 -79z" />
    <glyph glyph-name="P" unicode="P" horiz-adv-x="657" 
d="M84 723h323q107 0 161.5 -45t54.5 -148q0 -111 -66.5 -180.5t-185.5 -69.5h-106v-280h-181v723zM265 388q72 0 118.5 24t46.5 103q0 46 -29.5 67t-78.5 21q-12 0 -26.5 -2t-30.5 -5v-208z" />
    <glyph glyph-name="Q" unicode="Q" horiz-adv-x="855" 
d="M807 -151q-99 15 -183.5 46.5t-159.5 86.5h-36q-179 0 -285.5 100.5t-106.5 278.5t107 279t285 101q179 0 285 -101t106 -279q0 -116 -50.5 -206.5t-149.5 -136.5q81 -25 159 -38.5t156 -13.5zM428 102q93 0 139.5 78.5t46.5 180.5q0 101 -46.5 180.5t-139.5 79.5
q-94 0 -140.5 -78.5t-46.5 -181.5q0 -101 46 -180t141 -79z" />
    <glyph glyph-name="R" unicode="R" horiz-adv-x="734" 
d="M84 723h344q78 0 137.5 -45.5t59.5 -135.5q0 -65 -37.5 -121.5t-97.5 -84.5l232 -336h-233l-156 289h-68v-289h-181v723zM265 397h64q47 0 75 39t28 85q0 40 -23.5 61t-84.5 21h-59v-206z" />
    <glyph glyph-name="S" unicode="S" horiz-adv-x="594" 
d="M48 145q51 -20 99 -31.5t97 -11.5q48 0 84 17.5t36 61.5q0 46 -108.5 109t-161 106.5t-52.5 141.5q0 101 75.5 152t181.5 51q52 0 103.5 -5.5t111.5 -16.5v-137q-48 17 -95.5 28t-89.5 11q-35 0 -64.5 -15t-29.5 -47q0 -42 109 -101.5t167 -107.5t58 -150
q0 -81 -63 -149.5t-233 -68.5q-52 0 -106.5 3.5t-118.5 14.5v145z" />
    <glyph glyph-name="T" unicode="T" horiz-adv-x="735" 
d="M271 602h-262v121h717v-121h-262v-602h-193v602z" />
    <glyph glyph-name="U" unicode="U" horiz-adv-x="783" 
d="M277 723v-419q0 -107 27.5 -154.5t99.5 -47.5q65 0 96 42.5t31 141.5v437h168v-459q0 -140 -75 -211t-224 -71q-143 0 -229.5 69.5t-86.5 212.5v459h193z" />
    <glyph glyph-name="V" unicode="V" horiz-adv-x="735" 
d="M15 723h205l190 -527l188 527h128l-256 -723h-193z" />
    <glyph glyph-name="W" unicode="W" horiz-adv-x="940" 
d="M17 723h180l117 -490l115 490h149l108 -491l121 491h123l-178 -723h-181l-96 438l-103 -438h-180z" />
    <glyph glyph-name="X" unicode="X" horiz-adv-x="699" 
d="M250 349l-215 374h223l124 -216l138 216h143l-214 -334l224 -389h-222l-133 231l-149 -231h-143z" />
    <glyph glyph-name="Y" unicode="Y" horiz-adv-x="738" 
d="M271 304l-244 419h209l167 -286l168 286h140l-247 -419v-304h-193v304z" />
    <glyph glyph-name="Z" unicode="Z" horiz-adv-x="675" 
d="M54 120l334 483h-316v120h536v-120l-334 -483h334v-120h-554v120z" />
    <glyph glyph-name="bracketleft" unicode="[" horiz-adv-x="386" 
d="M72 771h264v-120h-96v-676h96v-120h-264v916z" />
    <glyph glyph-name="backslash" unicode="\" horiz-adv-x="596" 
d="M6 771h141l443 -916h-140z" />
    <glyph glyph-name="bracketright" unicode="]" horiz-adv-x="386" 
d="M314 -145h-264v120h96v676h-96v120h264v-916z" />
    <glyph glyph-name="asciicircum" unicode="^" 
d="M343 723l290 -578h-122l-168 335l-168 -335h-121z" />
    <glyph glyph-name="underscore" unicode="_" horiz-adv-x="500" 
d="M0 0h500v-60h-500v60z" />
    <glyph glyph-name="grave" unicode="`" horiz-adv-x="675" 
d="M178 771h150l109 -144h-115z" />
    <glyph glyph-name="a" unicode="a" horiz-adv-x="623" 
d="M350 232h-39q-41 0 -71 -12.5t-30 -55.5q0 -25 15.5 -40.5t41.5 -15.5q24 0 46 12t37 31v81zM581 0q-48 -12 -98 -12q-62 0 -90.5 15.5t-42.5 44.5h-12q-54 -60 -135 -60q-73 0 -123.5 44t-50.5 117q0 103 74 147t148 44h99v34q0 72 -96 72q-46 0 -92.5 -11.5
t-84.5 -34.5v120q48 17 99.5 25.5t104.5 8.5q144 0 197 -46.5t53 -134.5v-211q0 -26 5 -40t26 -14h19v-108z" />
    <glyph glyph-name="b" unicode="b" horiz-adv-x="696" 
d="M84 771h193v-229l-12 -102h12q23 54 68 84t104 30q109 0 160 -78t51 -192q0 -124 -56.5 -210t-174.5 -86q-47 0 -77.5 13.5t-74.5 46.5h-12l-24 -48h-157v771zM277 154q15 -23 36 -37.5t47 -14.5q49 0 72 55t23 112q0 54 -19 97.5t-67 43.5q-31 0 -53 -21t-39 -55v-180z
" />
    <glyph glyph-name="c" unicode="c" horiz-adv-x="545" 
d="M510 7q-79 -19 -173 -19q-170 0 -235.5 88.5t-65.5 194.5q0 105 65.5 194t235.5 89q21 0 173 -24v-128q-48 19 -78.5 27.5t-65.5 8.5q-61 0 -93 -47t-32 -110q0 -85 39.5 -129t122.5 -44q20 0 48.5 6t58.5 17v-124z" />
    <glyph glyph-name="d" unicode="d" horiz-adv-x="696" 
d="M419 388q-15 23 -36 37.5t-47 14.5q-49 0 -72 -55t-23 -112q0 -54 19 -97.5t67 -43.5q31 0 53 21t39 55v180zM431 102h-12q-23 -54 -68 -84t-104 -30q-109 0 -160 78t-51 192q0 124 56.5 210t174.5 86q47 0 77.5 -13t74.5 -47h12l-12 48v229h193v-771h-193z" />
    <glyph glyph-name="e" unicode="e" horiz-adv-x="614" 
d="M238 229q11 -66 52 -93.5t110 -27.5q34 0 70 6.5t105 30.5v-127q-55 -15 -112.5 -22.5t-125.5 -7.5q-170 0 -235.5 88.5t-65.5 194.5q0 105 65.5 194t235.5 89q138 0 188 -83.5t50 -241.5h-337zM394 325q0 49 -15 85t-56 36q-43 0 -64 -36t-27 -85h162z" />
    <glyph glyph-name="f" unicode="f" horiz-adv-x="461" 
d="M96 434h-72v108h72v36q0 94 53 149.5t169 55.5q47 0 80.5 -4.5t74.5 -16.5v-119q-22 14 -55.5 23t-60.5 9q-29 0 -48.5 -25.5t-19.5 -58.5v-49h139v-108h-139v-434h-193v434z" />
    <glyph glyph-name="g" unicode="g" horiz-adv-x="696" 
d="M419 389q-18 24 -36.5 37.5t-43.5 13.5q-52 0 -75 -51.5t-23 -111.5q0 -48 19 -87.5t63 -39.5q32 0 55.5 21t40.5 55v163zM612 41q0 -128 -85 -187t-216 -59q-55 0 -110 12.5t-111 35.5l12 127q44 -21 87 -31.5t89 -10.5q95 0 121.5 34t26.5 96l5 62h-12q-24 -54 -70 -84
t-106 -30q-105 0 -156 77t-51 188q0 120 59 201.5t175 81.5q46 0 77 -13.5t72 -46.5h12l12 48h169v-501z" />
    <glyph glyph-name="h" unicode="h" horiz-adv-x="693" 
d="M81 771h193v-229l-12 -102h12q25 51 73 82.5t104 31.5q79 0 120 -47t41 -122v-385h-193v325v15q0 41 -11.5 55.5t-35.5 14.5q-30 0 -52.5 -21t-45.5 -58v-331h-193v771z" />
    <glyph glyph-name="i" unicode="i" horiz-adv-x="361" 
d="M84 542h193v-542h-193v542zM84 771h193v-144h-193v144z" />
    <glyph glyph-name="j" unicode="j" horiz-adv-x="361" 
d="M-100 -67q24 -12 55.5 -21t58.5 -9q36 0 53 22t17 57v560h193v-541q0 -88 -50 -147t-180 -59q-73 0 -147 20v118zM84 771h193v-144h-193v144z" />
    <glyph glyph-name="k" unicode="k" horiz-adv-x="681" 
d="M84 771h193v-476h18l157 247h142l-142 -224l200 -318h-223l-134 259h-18v-259h-193v771z" />
    <glyph glyph-name="l" unicode="l" horiz-adv-x="361" 
d="M84 771h193v-771h-193v771z" />
    <glyph glyph-name="m" unicode="m" horiz-adv-x="1006" 
d="M250 440h12q23 53 71 84t106 31q60 0 99.5 -28t48.5 -87h13q54 114 174 114q94 0 123 -47t29 -112v-395h-181v295v17q0 56 -13.5 77t-40.5 21q-29 0 -55 -26t-42 -59v-325h-181v295v17q0 56 -13.5 77t-40.5 21q-29 0 -55 -26t-42 -59v-325h-181v542h181z" />
    <glyph glyph-name="n" unicode="n" horiz-adv-x="693" 
d="M262 440h12q25 51 73 82.5t104 31.5q79 0 120 -47t41 -122v-385h-193v325v15q0 41 -11.5 55.5t-35.5 14.5q-30 0 -52.5 -21t-45.5 -58v-331h-193v542h193z" />
    <glyph glyph-name="o" unicode="o" horiz-adv-x="675" 
d="M36 271q0 105 65.5 194t235.5 89t236 -89t66 -194t-66 -194t-236 -89t-235.5 88.5t-65.5 194.5zM337 96q52 0 74.5 56.5t22.5 118.5q0 61 -22.5 118t-74.5 57q-51 0 -73.5 -56.5t-22.5 -118.5q0 -61 22.5 -118t73.5 -57z" />
    <glyph glyph-name="p" unicode="p" horiz-adv-x="696" 
d="M277 154q15 -23 36 -37.5t47 -14.5q49 0 72 55t23 112q0 54 -19 97.5t-67 43.5q-31 0 -53 -21t-39 -55v-180zM265 440h12q23 54 68 84t104 30q109 0 160 -78t51 -192q0 -124 -56.5 -210t-174.5 -86q-47 0 -77.5 13.5t-74.5 46.5h-12l12 -48v-193h-193v735h193z" />
    <glyph glyph-name="q" unicode="q" horiz-adv-x="696" 
d="M612 -193h-193v193l12 102h-12q-23 -54 -68 -84t-104 -30q-109 0 -160 78t-51 192q0 124 56.5 210t174.5 86q47 0 77.5 -13t74.5 -47h12l24 48h157v-735zM419 388q-15 23 -36 37.5t-47 14.5q-49 0 -72 -55t-23 -112q0 -54 19 -97.5t67 -43.5q31 0 53 21t39 55v180z" />
    <glyph glyph-name="r" unicode="r" horiz-adv-x="500" 
d="M265 440h12q25 51 73 82.5t104 31.5h22v-170q-32 14 -73 14q-84 0 -126 -67v-331h-193v542h193z" />
    <glyph glyph-name="s" unicode="s" horiz-adv-x="622" 
d="M66 139q56 -20 105 -31.5t97 -11.5q35 0 59 8.5t24 35.5q0 29 -90.5 64t-142 69t-51.5 112q0 66 55.5 117.5t200.5 51.5q93 0 185 -21v-123q-41 16 -82 26t-78 10q-36 0 -62 -8.5t-26 -35.5t94.5 -59.5t148 -64.5t53.5 -108q0 -73 -61.5 -127.5t-200.5 -54.5
q-119 0 -228 28v123z" />
    <glyph glyph-name="t" unicode="t" horiz-adv-x="436" 
d="M41 542h54v85l193 24v-109h102v-108h-102v-251q0 -34 14.5 -54.5t55.5 -20.5q21 0 43 8v-111q-24 -9 -50.5 -13t-56.5 -4q-117 0 -158 48.5t-41 116.5v281h-54v108z" />
    <glyph glyph-name="u" unicode="u" horiz-adv-x="693" 
d="M428 102h-12q-25 -51 -73 -82.5t-104 -31.5q-79 0 -120 47t-41 122v385h193v-325q0 -41 7 -63t40 -22q30 0 52.5 21t45.5 58v331h193v-542h-193z" />
    <glyph glyph-name="v" unicode="v" horiz-adv-x="663" 
d="M24 542h207l141 -358l137 358h130l-209 -542h-193z" />
    <glyph glyph-name="w" unicode="w" horiz-adv-x="885" 
d="M29 542h174l83 -342l100 342h164l85 -342l95 342h125l-150 -542h-180l-84 338l-99 -338h-180z" />
    <glyph glyph-name="x" unicode="x" horiz-adv-x="568" 
d="M187 265l-160 277h209l80 -139l81 139h140l-151 -259l163 -283h-209l-85 147l-94 -147h-142z" />
    <glyph glyph-name="y" unicode="y" horiz-adv-x="645" 
d="M227 0l-214 542h207l125 -316l152 316h134l-353 -735h-199z" />
    <glyph glyph-name="z" unicode="z" horiz-adv-x="608" 
d="M60 120l271 314h-259v108h482v-108l-271 -314h277v-120h-500v120z" />
    <glyph glyph-name="braceleft" unicode="{" horiz-adv-x="386" 
d="M55 373h34q20 0 35.5 15t15.5 40q0 17 -7.5 48.5t-13 52.5t-11 48.5t-5.5 45.5q0 85 59.5 116.5t153.5 31.5h19v-120q-18 -4 -26 -17t-8 -32q0 -16 6.5 -59t6.5 -67q0 -54 -34 -99t-86 -64q52 -19 86 -64t34 -99q0 -29 -6.5 -71.5t-6.5 -54.5q0 -21 7.5 -33t26.5 -16
v-120h-19q-95 0 -154 31t-59 117q0 15 3.5 36.5t12.5 56.5t15 61.5t6 40.5q0 24 -15.5 39.5t-35.5 15.5h-34v120z" />
    <glyph glyph-name="bar" unicode="|" horiz-adv-x="265" 
d="M78 771h108v-916h-108v916z" />
    <glyph glyph-name="braceright" unicode="}" horiz-adv-x="386" 
d="M331 253h-34q-20 0 -35.5 -15t-15.5 -40q0 -17 7.5 -48.5t13 -52.5t11 -48.5t5.5 -45.5q0 -85 -59.5 -116.5t-153.5 -31.5h-19v120q18 4 26 17t8 32q0 16 -6.5 59t-6.5 67q0 54 34 99t86 64q-52 19 -86 64t-34 99q0 29 6.5 71.5t6.5 54.5q0 21 -7.5 33t-26.5 16v120h19
q95 0 154 -31t59 -117q0 -15 -3.5 -36.5t-12.5 -56.5t-15 -61.5t-6 -40.5q0 -24 15.5 -39.5t35.5 -15.5h34v-120z" />
    <glyph glyph-name="asciitilde" unicode="~" 
d="M54 196v11q0 42 7 73.5t38 72.5t100 41q40 0 72 -12t83 -39l44 -22q28 -15 47.5 -22t31.5 -7q31 0 45 24t14 58v9h97v-12q0 -43 -7 -73.5t-38 -72t-100 -41.5q-47 0 -100 23l-56 28l-43 22q-28 15 -47.5 22t-31.5 7q-31 0 -45 -24t-14 -57v-9h-97z" />
    <glyph glyph-name="Adieresis" unicode="&#xc4;" horiz-adv-x="773" 
d="M290 723h193l277 -723h-194l-70 184h-283l-71 -184h-129zM452 298l-98 256l-98 -256h196zM224 928h120v-120h-120v120zM429 928h120v-120h-120v120z" />
    <glyph glyph-name="Aring" unicode="&#xc5;" horiz-adv-x="773" 
d="M290 723h193l277 -723h-194l-70 184h-283l-71 -184h-129zM452 298l-98 256l-98 -256h196zM386 964q33 0 56 -23t23 -55t-23 -55t-56 -23q-32 0 -55 23t-23 55t23 55t55 23zM386 856q13 0 22 8t9 22q0 12 -9 21t-22 9t-21.5 -8.5t-8.5 -21.5q0 -12 9 -21t21 -9z" />
    <glyph glyph-name="Ccedilla" unicode="&#xc7;" horiz-adv-x="726" 
d="M686 578q-54 20 -108 31.5t-107 11.5q-121 0 -175.5 -72.5t-54.5 -182.5q0 -124 64 -194t186 -70q51 0 102.5 13.5t104.5 38.5v-133q-118 -39 -270 -39q-179 0 -285.5 100.5t-106.5 278.5t107 279t285 101q146 0 258 -24v-139zM274 -128q10 -3 22 -5t22 -2q17 0 29.5 5
t12.5 21q0 19 -20.5 28.5t-44.5 11.5l55 69h76l-41 -58q33 -5 58 -21.5t25 -45.5q0 -34 -33.5 -51t-71.5 -17q-44 0 -89 14v51z" />
    <glyph glyph-name="Eacute" unicode="&#xc9;" horiz-adv-x="645" 
d="M84 723h494v-120h-301v-176h247v-108h-247v-199h325v-120h-518v723zM332 952h150l-144 -144h-115z" />
    <glyph glyph-name="Ntilde" unicode="&#xd1;" horiz-adv-x="783" 
d="M84 723h161l307 -434l2 434h145v-723h-160l-308 434l-2 -434h-145v723zM572 952q0 -60 -25 -102t-80 -42q-18 0 -40 6t-33.5 8.5t-32 7.5t-29.5 5q-25 0 -25 -27h-96q0 57 25.5 100.5t79.5 43.5q16 0 37 -5.5t33 -8t34 -8t31 -5.5q25 0 25 27h96z" />
    <glyph glyph-name="Odieresis" unicode="&#xd6;" horiz-adv-x="855" 
d="M428 741q179 0 285 -101t106 -279q0 -177 -106 -278t-285 -101t-285.5 100.5t-106.5 278.5t107 279t285 101zM428 102q93 0 139.5 78.5t46.5 180.5q0 101 -46.5 180.5t-139.5 79.5q-94 0 -140.5 -78.5t-46.5 -181.5q0 -101 46 -180t141 -79zM265 928h120v-120h-120v120z
M470 928h120v-120h-120v120z" />
    <glyph glyph-name="Udieresis" unicode="&#xdc;" horiz-adv-x="783" 
d="M277 723v-419q0 -107 27.5 -154.5t99.5 -47.5q65 0 96 42.5t31 141.5v437h168v-459q0 -140 -75 -211t-224 -71q-143 0 -229.5 69.5t-86.5 212.5v459h193zM229 928h120v-120h-120v120zM434 928h120v-120h-120v120z" />
    <glyph glyph-name="aacute" unicode="&#xe1;" horiz-adv-x="623" 
d="M350 232h-39q-41 0 -71 -12.5t-30 -55.5q0 -25 15.5 -40.5t41.5 -15.5q24 0 46 12t37 31v81zM581 0q-48 -12 -98 -12q-62 0 -90.5 15.5t-42.5 44.5h-12q-54 -60 -135 -60q-73 0 -123.5 44t-50.5 117q0 103 74 147t148 44h99v34q0 72 -96 72q-46 0 -92.5 -11.5
t-84.5 -34.5v120q48 17 99.5 25.5t104.5 8.5q144 0 197 -46.5t53 -134.5v-211q0 -26 5 -40t26 -14h19v-108zM321 771h150l-144 -144h-115z" />
    <glyph glyph-name="agrave" unicode="&#xe0;" horiz-adv-x="623" 
d="M350 232h-39q-41 0 -71 -12.5t-30 -55.5q0 -25 15.5 -40.5t41.5 -15.5q24 0 46 12t37 31v81zM581 0q-48 -12 -98 -12q-62 0 -90.5 15.5t-42.5 44.5h-12q-54 -60 -135 -60q-73 0 -123.5 44t-50.5 117q0 103 74 147t148 44h99v34q0 72 -96 72q-46 0 -92.5 -11.5
t-84.5 -34.5v120q48 17 99.5 25.5t104.5 8.5q144 0 197 -46.5t53 -134.5v-211q0 -26 5 -40t26 -14h19v-108zM152 771h150l109 -144h-115z" />
    <glyph glyph-name="acircumflex" unicode="&#xe2;" horiz-adv-x="623" 
d="M350 232h-39q-41 0 -71 -12.5t-30 -55.5q0 -25 15.5 -40.5t41.5 -15.5q24 0 46 12t37 31v81zM581 0q-48 -12 -98 -12q-62 0 -90.5 15.5t-42.5 44.5h-12q-54 -60 -135 -60q-73 0 -123.5 44t-50.5 117q0 103 74 147t148 44h99v34q0 72 -96 72q-46 0 -92.5 -11.5
t-84.5 -34.5v120q48 17 99.5 25.5t104.5 8.5q144 0 197 -46.5t53 -134.5v-211q0 -26 5 -40t26 -14h19v-108zM311 699l-66 -72h-114l108 144h145l108 -144h-114z" />
    <glyph glyph-name="adieresis" unicode="&#xe4;" horiz-adv-x="623" 
d="M350 232h-39q-41 0 -71 -12.5t-30 -55.5q0 -25 15.5 -40.5t41.5 -15.5q24 0 46 12t37 31v81zM581 0q-48 -12 -98 -12q-62 0 -90.5 15.5t-42.5 44.5h-12q-54 -60 -135 -60q-73 0 -123.5 44t-50.5 117q0 103 74 147t148 44h99v34q0 72 -96 72q-46 0 -92.5 -11.5
t-84.5 -34.5v120q48 17 99.5 25.5t104.5 8.5q144 0 197 -46.5t53 -134.5v-211q0 -26 5 -40t26 -14h19v-108zM149 747h120v-120h-120v120zM354 747h120v-120h-120v120z" />
    <glyph glyph-name="atilde" unicode="&#xe3;" horiz-adv-x="623" 
d="M350 232h-39q-41 0 -71 -12.5t-30 -55.5q0 -25 15.5 -40.5t41.5 -15.5q24 0 46 12t37 31v81zM581 0q-48 -12 -98 -12q-62 0 -90.5 15.5t-42.5 44.5h-12q-54 -60 -135 -60q-73 0 -123.5 44t-50.5 117q0 103 74 147t148 44h99v34q0 72 -96 72q-46 0 -92.5 -11.5
t-84.5 -34.5v120q48 17 99.5 25.5t104.5 8.5q144 0 197 -46.5t53 -134.5v-211q0 -26 5 -40t26 -14h19v-108zM492 771q0 -60 -25 -102t-80 -42q-18 0 -40 6t-33.5 8.5t-32 7.5t-29.5 5q-25 0 -25 -27h-96q0 57 25.5 100.5t79.5 43.5q16 0 37 -5.5t33 -8t34 -8t31 -5.5
q25 0 25 27h96z" />
    <glyph glyph-name="aring" unicode="&#xe5;" horiz-adv-x="623" 
d="M350 232h-39q-41 0 -71 -12.5t-30 -55.5q0 -25 15.5 -40.5t41.5 -15.5q24 0 46 12t37 31v81zM581 0q-48 -12 -98 -12q-62 0 -90.5 15.5t-42.5 44.5h-12q-54 -60 -135 -60q-73 0 -123.5 44t-50.5 117q0 103 74 147t148 44h99v34q0 72 -96 72q-46 0 -92.5 -11.5
t-84.5 -34.5v120q48 17 99.5 25.5t104.5 8.5q144 0 197 -46.5t53 -134.5v-211q0 -26 5 -40t26 -14h19v-108zM311 783q33 0 56 -23t23 -55t-23 -55t-56 -23q-32 0 -55 23t-23 55t23 55t55 23zM311 675q13 0 22 8t9 22q0 12 -9 21t-22 9t-21.5 -8.5t-8.5 -21.5q0 -12 9 -21
t21 -9z" />
    <glyph glyph-name="ccedilla" unicode="&#xe7;" horiz-adv-x="545" 
d="M510 7q-79 -19 -173 -19q-170 0 -235.5 88.5t-65.5 194.5q0 105 65.5 194t235.5 89q21 0 173 -24v-128q-48 19 -78.5 27.5t-65.5 8.5q-61 0 -93 -47t-32 -110q0 -85 39.5 -129t122.5 -44q20 0 48.5 6t58.5 17v-124zM183 -128q10 -3 22 -5t22 -2q17 0 29.5 5t12.5 21
q0 19 -20.5 28.5t-44.5 11.5l55 69h76l-41 -58q33 -5 58 -21.5t25 -45.5q0 -34 -33.5 -51t-71.5 -17q-44 0 -89 14v51z" />
    <glyph glyph-name="eacute" unicode="&#xe9;" horiz-adv-x="614" 
d="M238 229q11 -66 52 -93.5t110 -27.5q34 0 70 6.5t105 30.5v-127q-55 -15 -112.5 -22.5t-125.5 -7.5q-170 0 -235.5 88.5t-65.5 194.5q0 105 65.5 194t235.5 89q138 0 188 -83.5t50 -241.5h-337zM394 325q0 49 -15 85t-56 36q-43 0 -64 -36t-27 -85h162zM317 771h150
l-144 -144h-115z" />
    <glyph glyph-name="egrave" unicode="&#xe8;" horiz-adv-x="614" 
d="M238 229q11 -66 52 -93.5t110 -27.5q34 0 70 6.5t105 30.5v-127q-55 -15 -112.5 -22.5t-125.5 -7.5q-170 0 -235.5 88.5t-65.5 194.5q0 105 65.5 194t235.5 89q138 0 188 -83.5t50 -241.5h-337zM394 325q0 49 -15 85t-56 36q-43 0 -64 -36t-27 -85h162zM148 771h150
l109 -144h-115z" />
    <glyph glyph-name="ecircumflex" unicode="&#xea;" horiz-adv-x="614" 
d="M238 229q11 -66 52 -93.5t110 -27.5q34 0 70 6.5t105 30.5v-127q-55 -15 -112.5 -22.5t-125.5 -7.5q-170 0 -235.5 88.5t-65.5 194.5q0 105 65.5 194t235.5 89q138 0 188 -83.5t50 -241.5h-337zM394 325q0 49 -15 85t-56 36q-43 0 -64 -36t-27 -85h162zM307 699l-66 -72
h-114l108 144h145l108 -144h-114z" />
    <glyph glyph-name="edieresis" unicode="&#xeb;" horiz-adv-x="614" 
d="M238 229q11 -66 52 -93.5t110 -27.5q34 0 70 6.5t105 30.5v-127q-55 -15 -112.5 -22.5t-125.5 -7.5q-170 0 -235.5 88.5t-65.5 194.5q0 105 65.5 194t235.5 89q138 0 188 -83.5t50 -241.5h-337zM394 325q0 49 -15 85t-56 36q-43 0 -64 -36t-27 -85h162zM145 747h120v-120
h-120v120zM350 747h120v-120h-120v120z" />
    <glyph glyph-name="iacute" unicode="&#xed;" horiz-adv-x="361" 
d="M84 542h193v-542h-193v542zM190 771h150l-144 -144h-115z" />
    <glyph glyph-name="igrave" unicode="&#xec;" horiz-adv-x="361" 
d="M84 542h193v-542h-193v542zM21 771h150l109 -144h-115z" />
    <glyph glyph-name="icircumflex" unicode="&#xee;" horiz-adv-x="361" 
d="M84 542h193v-542h-193v542zM180 699l-66 -72h-114l108 144h145l108 -144h-114z" />
    <glyph glyph-name="idieresis" unicode="&#xef;" horiz-adv-x="361" 
d="M84 542h193v-542h-193v542zM18 747h120v-120h-120v120zM223 747h120v-120h-120v120z" />
    <glyph glyph-name="ntilde" unicode="&#xf1;" horiz-adv-x="693" 
d="M262 440h12q25 51 73 82.5t104 31.5q79 0 120 -47t41 -122v-385h-193v325v15q0 41 -11.5 55.5t-35.5 14.5q-30 0 -52.5 -21t-45.5 -58v-331h-193v542h193zM527 771q0 -60 -25 -102t-80 -42q-18 0 -40 6t-33.5 8.5t-32 7.5t-29.5 5q-25 0 -25 -27h-96q0 57 25.5 100.5
t79.5 43.5q16 0 37 -5.5t33 -8t34 -8t31 -5.5q25 0 25 27h96z" />
    <glyph glyph-name="oacute" unicode="&#xf3;" horiz-adv-x="675" 
d="M36 271q0 105 65.5 194t235.5 89t236 -89t66 -194t-66 -194t-236 -89t-235.5 88.5t-65.5 194.5zM337 96q52 0 74.5 56.5t22.5 118.5q0 61 -22.5 118t-74.5 57q-51 0 -73.5 -56.5t-22.5 -118.5q0 -61 22.5 -118t73.5 -57zM347 771h150l-144 -144h-115z" />
    <glyph glyph-name="ograve" unicode="&#xf2;" horiz-adv-x="675" 
d="M36 271q0 105 65.5 194t235.5 89t236 -89t66 -194t-66 -194t-236 -89t-235.5 88.5t-65.5 194.5zM337 96q52 0 74.5 56.5t22.5 118.5q0 61 -22.5 118t-74.5 57q-51 0 -73.5 -56.5t-22.5 -118.5q0 -61 22.5 -118t73.5 -57zM178 771h150l109 -144h-115z" />
    <glyph glyph-name="ocircumflex" unicode="&#xf4;" horiz-adv-x="675" 
d="M36 271q0 105 65.5 194t235.5 89t236 -89t66 -194t-66 -194t-236 -89t-235.5 88.5t-65.5 194.5zM337 96q52 0 74.5 56.5t22.5 118.5q0 61 -22.5 118t-74.5 57q-51 0 -73.5 -56.5t-22.5 -118.5q0 -61 22.5 -118t73.5 -57zM337 699l-66 -72h-114l108 144h145l108 -144h-114
z" />
    <glyph glyph-name="odieresis" unicode="&#xf6;" horiz-adv-x="675" 
d="M36 271q0 105 65.5 194t235.5 89t236 -89t66 -194t-66 -194t-236 -89t-235.5 88.5t-65.5 194.5zM337 96q52 0 74.5 56.5t22.5 118.5q0 61 -22.5 118t-74.5 57q-51 0 -73.5 -56.5t-22.5 -118.5q0 -61 22.5 -118t73.5 -57zM175 747h120v-120h-120v120zM380 747h120v-120
h-120v120z" />
    <glyph glyph-name="otilde" unicode="&#xf5;" horiz-adv-x="675" 
d="M36 271q0 105 65.5 194t235.5 89t236 -89t66 -194t-66 -194t-236 -89t-235.5 88.5t-65.5 194.5zM337 96q52 0 74.5 56.5t22.5 118.5q0 61 -22.5 118t-74.5 57q-51 0 -73.5 -56.5t-22.5 -118.5q0 -61 22.5 -118t73.5 -57zM518 771q0 -60 -25 -102t-80 -42q-18 0 -40 6
t-33.5 8.5t-32 7.5t-29.5 5q-25 0 -25 -27h-96q0 57 25.5 100.5t79.5 43.5q16 0 37 -5.5t33 -8t34 -8t31 -5.5q25 0 25 27h96z" />
    <glyph glyph-name="uacute" unicode="&#xfa;" horiz-adv-x="693" 
d="M428 102h-12q-25 -51 -73 -82.5t-104 -31.5q-79 0 -120 47t-41 122v385h193v-325q0 -41 7 -63t40 -22q30 0 52.5 21t45.5 58v331h193v-542h-193zM356 771h150l-144 -144h-115z" />
    <glyph glyph-name="ugrave" unicode="&#xf9;" horiz-adv-x="693" 
d="M428 102h-12q-25 -51 -73 -82.5t-104 -31.5q-79 0 -120 47t-41 122v385h193v-325q0 -41 7 -63t40 -22q30 0 52.5 21t45.5 58v331h193v-542h-193zM187 771h150l109 -144h-115z" />
    <glyph glyph-name="ucircumflex" unicode="&#xfb;" horiz-adv-x="693" 
d="M428 102h-12q-25 -51 -73 -82.5t-104 -31.5q-79 0 -120 47t-41 122v385h193v-325q0 -41 7 -63t40 -22q30 0 52.5 21t45.5 58v331h193v-542h-193zM346 699l-66 -72h-114l108 144h145l108 -144h-114z" />
    <glyph glyph-name="udieresis" unicode="&#xfc;" horiz-adv-x="693" 
d="M428 102h-12q-25 -51 -73 -82.5t-104 -31.5q-79 0 -120 47t-41 122v385h193v-325q0 -41 7 -63t40 -22q30 0 52.5 21t45.5 58v331h193v-542h-193zM184 747h120v-120h-120v120zM389 747h120v-120h-120v120z" />
    <glyph glyph-name="dagger" unicode="&#x2020;" horiz-adv-x="693" 
d="M442 -145h-192l12 518l-175 -12v145l175 -12l-12 229h192l-12 -229l175 12v-145l-175 12z" />
    <glyph glyph-name="degree" unicode="&#xb0;" horiz-adv-x="241" 
d="M120 741q35 0 60 -24t25 -60q0 -35 -25 -60t-60 -25q-34 0 -59 25t-25 60t24.5 59.5t59.5 24.5zM120 620q15 0 26 11t11 26q0 14 -11 25t-26 11t-25.5 -10.5t-10.5 -25.5t11 -26t25 -11z" />
    <glyph glyph-name="cent" unicode="&#xa2;" 
d="M338 741h108v-93q44 0 73.5 -5.5t71.5 -16.5v-128q-40 18 -87 30t-90 12q-70 0 -100 -45.5t-30 -119.5q0 -85 39.5 -129t122.5 -44q38 0 69.5 5.5t75.5 17.5v-123q-73 -10 -145 -20v-100h-108v100q-123 10 -191 85t-68 199q0 125 69.5 203.5t189.5 78.5v93z" />
    <glyph glyph-name="sterling" unicode="&#xa3;" 
d="M120 144q59 5 75 36t16 97v55h-72v108h72v70q0 231 253 231q38 0 56.5 -1t86.5 -10v-114q-25 8 -53 12.5t-53 4.5q-59 0 -78 -24.5t-19 -84.5v-84h84v-108h-84q0 -68 -32 -111.5t-96 -74.5l338 -2v-144h-494v144z" />
    <glyph glyph-name="section" unicode="&#xa7;" horiz-adv-x="693" 
d="M435 200q10 16 14.5 27.5t4.5 19.5q0 48 -69 81t-122 58q-10 -16 -14.5 -27.5t-4.5 -19.5q0 -48 68.5 -81t122.5 -58zM560 603q-45 14 -91 22t-92 8q-53 0 -78 -11t-25 -33q0 -29 101 -68.5t162.5 -81.5t61.5 -132q0 -45 -19 -79.5t-58 -72.5q35 -22 56.5 -58t21.5 -77
q0 -125 -93 -153.5t-211 -28.5q-44 0 -80 4t-108 15v124q65 -18 111 -26.5t99 -8.5q38 0 69.5 9.5t31.5 38.5q0 34 -103 76.5t-160 81.5t-57 129q0 42 21 79t57 70q-38 20 -61 55t-23 77q0 103 77 141t188 38q81 0 120 -3.5t82 -12.5v-122z" />
    <glyph glyph-name="bullet" unicode="&#x2022;" 
d="M151 482h385v-385h-385v385z" />
    <glyph glyph-name="paragraph" unicode="&#xb6;" horiz-adv-x="693" 
d="M268 361q-84 17 -132.5 65.5t-48.5 130.5q0 87 45 126.5t126 39.5h251v-868h-96v796h-49v-796h-96v506z" />
    <glyph glyph-name="germandbls" unicode="&#xdf;" horiz-adv-x="724" 
d="M84 551q0 87 52.5 159.5t200.5 72.5q125 0 181.5 -36t56.5 -92q0 -25 -11.5 -48t-36 -57.5t-34 -50.5t-9.5 -34q0 -37 78.5 -94.5t114.5 -94t36 -113.5q0 -83 -57.5 -129t-142.5 -46q-42 0 -79.5 6t-81.5 18v119q59 -35 124 -35q26 0 47.5 10.5t21.5 33.5q0 27 -74 81.5
t-105.5 85t-31.5 89.5q0 35 12 62t26.5 51.5t30 53.5t15.5 53q0 28 -20.5 43.5t-49.5 15.5q-47 0 -59 -27.5t-12 -81.5v-566h-193v551z" />
    <glyph glyph-name="registered" unicode="&#xae;" 
d="M343 741q107 0 183 -76t76 -183t-76 -183t-183 -76t-182.5 75.5t-75.5 183.5q0 107 75 183t183 76zM343 295q77 0 132 55t55 132t-55 132t-132 55t-131.5 -54.5t-54.5 -132.5q0 -77 54 -132t132 -55zM325 343h-90v271h100q64 0 96.5 -11t32.5 -61q0 -27 -15 -50t-39 -36
l54 -113h-94l-30 94h-15v-94zM329 491q20 0 32.5 8t12.5 27q0 18 -11 23t-32 5h-6v-63h4z" />
    <glyph glyph-name="copyright" unicode="&#xa9;" horiz-adv-x="825" 
d="M413 741q157 0 268 -111t111 -269q0 -157 -111 -268t-268 -111q-158 0 -269 111t-111 268q0 158 111 269t269 111zM413 54q127 0 217 90t90 217q0 128 -90 218t-217 90q-128 0 -218 -90t-90 -218q0 -127 90 -217t218 -90zM581 485q-33 14 -67.5 22t-69.5 8
q-64 0 -101 -42.5t-37 -107.5q0 -70 44 -112t114 -42q34 0 63.5 4.5t53.5 16.5v-69q-35 -8 -72 -13t-71 -5q-109 0 -174.5 58t-65.5 165q0 86 57 146.5t170 60.5q47 0 81 -4.5t75 -16.5v-69z" />
    <glyph glyph-name="trademark" unicode="&#x2122;" horiz-adv-x="901" 
d="M115 615h-109v108h386v-108h-109v-254h-168v254zM877 361h-168v187l-51 -159h-82l-41 159l-2 -187h-108v362h172l45 -166l64 166h171v-362z" />
    <glyph glyph-name="acute" unicode="&#xb4;" horiz-adv-x="675" 
d="M347 771h150l-144 -144h-115z" />
    <glyph glyph-name="dieresis" unicode="&#xa8;" horiz-adv-x="675" 
d="M175 747h120v-120h-120v120zM380 747h120v-120h-120v120z" />
    <glyph glyph-name="notequal" unicode="&#x2260;" horiz-adv-x="602" 
d="M84 723h500v-120h-307v-603h-193v723z" />
    <glyph glyph-name="AE" unicode="&#xc6;" horiz-adv-x="997" 
d="M408 723h522v-120h-301v-176h247v-108h-247v-199h325v-120h-518v175h-194l-96 -175h-138zM437 283v241l-134 -241h134z" />
    <glyph glyph-name="Oslash" unicode="&#xd8;" horiz-adv-x="855" 
d="M535 585q-20 19 -48 27.5t-59 8.5q-94 0 -140.5 -78.5t-46.5 -181.5q0 -55 16 -113zM323 140q41 -38 105 -38q93 0 139.5 78.5t46.5 180.5q0 34 -3 60t-12 53zM130 96q-46 50 -70 120.5t-24 144.5q0 178 107 279t285 101q59 0 105.5 -9.5t94.5 -33.5l35 43h156l-94 -115
q48 -50 71 -119t23 -146q0 -177 -106 -278t-285 -101q-112 0 -202 42l-34 -42h-156z" />
    <glyph glyph-name="infinity" unicode="&#x221e;" horiz-adv-x="729" 
d="M268 723h193l259 -723h-205l-188 528l-190 -528h-128z" />
    <glyph glyph-name="plusminus" unicode="&#xb1;" 
d="M54 108h579v-108h-579v108zM289 314h-235v108h235v156h108v-156h236v-108h-236v-157h-108v157z" />
    <glyph glyph-name="lessequal" unicode="&#x2264;" horiz-adv-x="807" 
d="M313 476q-52 0 -83 -31t-31 -84q0 -52 30 -83t84 -31v229zM494 247q53 0 83.5 30.5t30.5 83.5t-30 84t-84 31v-229zM494 584q103 0 199 -50t96 -173q0 -120 -96 -171t-199 -51v-139h-181v139q-103 0 -199 50.5t-96 171.5q0 122 97 172.5t198 50.5v139h181v-139z" />
    <glyph glyph-name="greaterequal" unicode="&#x2265;" horiz-adv-x="843" 
d="M99 603h-48v120h741v-120h-48v-603h-193v603h-259v-603h-193v603z" />
    <glyph glyph-name="yen" unicode="&#xa5;" 
d="M242 163h-108v84h108v36h-108v84h99l-210 356h210l149 -251l155 251h127l-220 -356h100v-84h-109v-36h109v-84h-109v-163h-193v163z" />
    <glyph glyph-name="uni00B5" unicode="&#xb5;" horiz-adv-x="699" 
d="M422 0l12 102h-12q-25 -51 -51 -79.5t-69 -28.5q-5 0 -11 0.5t-14 5.5v-145h-193v687h193v-325q0 -53 11 -70.5t36 -17.5q29 0 52 22t46 60v331h193v-542h-193z" />
    <glyph glyph-name="partialdiff" unicode="&#x2202;" horiz-adv-x="867" 
d="M343 289q-132 0 -182.5 44.5t-69.5 136t-30.5 112.5t-48.5 21v120q120 0 167.5 -38.5t66.5 -128.5t35.5 -124.5t61.5 -34.5v326h181v-326q45 0 61 33t36 124.5t67.5 130t166.5 38.5v-120q-36 0 -48 -22.5t-31 -112t-69.5 -134.5t-182.5 -45v-289h-181v289z" />
    <glyph glyph-name="summation" unicode="&#x2211;" horiz-adv-x="747" 
d="M36 157l277 192l-241 254v120h633v-120h-367l219 -231l-310 -213l482 -2v-157h-693v157z" />
    <glyph glyph-name="product" unicode="&#x220f;" horiz-adv-x="361" 
d="M-12 359l385 207v-122l-385 -209v124z" />
    <glyph glyph-name="pi" unicode="&#x3c0;" horiz-adv-x="855" 
d="M428 741q179 0 285 -101t106 -279q0 -177 -106 -278t-285 -101t-285.5 100.5t-106.5 278.5t107 279t285 101zM428 102q93 0 139.5 78.5t46.5 180.5q0 101 -46.5 180.5t-139.5 79.5q-94 0 -140.5 -78.5t-46.5 -181.5q0 -101 46 -180t141 -79zM313 437h229v-120h-229v120z
" />
    <glyph glyph-name="integral" unicode="&#x222b;" horiz-adv-x="699" 
d="M251 0v182q0 153 -38 240.5t-88 123t-116 57.5v120q130 0 230.5 -73t147.5 -196q44 108 127 188.5t181 80.5v-120q-34 0 -95.5 -48t-108.5 -142t-47 -231v-182h-193z" />
    <glyph glyph-name="ordfeminine" unicode="&#xaa;" horiz-adv-x="536" 
d="M307 512h-29q-36 0 -59.5 -7.5t-23.5 -36.5q0 -13 13.5 -20.5t28.5 -7.5q18 0 35 8t35 22v42zM307 610q0 19 -17.5 33t-70.5 14q-39 0 -84 -8.5t-87 -22.5v86q45 14 93.5 21.5t98.5 7.5q123 0 179 -34t56 -88v-91q0 -37 4.5 -54t29.5 -17h12v-93q-42 -15 -97 -15
q-36 0 -65.5 13t-45.5 42q-29 -26 -68.5 -40.5t-80.5 -14.5q-54 0 -95.5 30t-41.5 82q0 50 48 89.5t163 39.5h69v20z" />
    <glyph glyph-name="ordmasculine" unicode="&#xba;" horiz-adv-x="536" 
d="M268 741q110 0 178.5 -45.5t68.5 -150.5t-68.5 -150.5t-178.5 -45.5q-109 0 -178 46t-69 150q0 105 68.5 150.5t178.5 45.5zM268 433q41 0 60 33.5t19 78.5q0 46 -18 79t-61 33q-41 0 -60 -33.5t-19 -78.5q0 -46 18 -79t61 -33z" />
    <glyph glyph-name="Omega" unicode="&#x3a9;" horiz-adv-x="892" 
d="M12 120h220q-76 68 -121 143t-45 162q0 118 92 217t288 99t288 -99t92 -217q0 -85 -45.5 -161.5t-120.5 -143.5h220v-120h-361v120q51 42 76.5 115.5t25.5 147.5q0 95 -43 166.5t-132 71.5t-132 -70.5t-43 -167.5q0 -77 25 -148.5t77 -114.5v-120h-361v120z" />
    <glyph glyph-name="ae" unicode="&#xe6;" horiz-adv-x="913" 
d="M687 325q0 49 -15 85t-56 36q-43 0 -64 -36t-27 -85h162zM350 374q0 72 -96 72q-46 0 -92.5 -11.5t-84.5 -34.5v120q48 17 99.5 25.5t104.5 8.5q91 0 173 -58q36 33 77.5 45.5t98.5 12.5q138 0 188 -83.5t50 -241.5h-337q11 -66 52 -93.5t110 -27.5q34 0 70 6.5t105 30.5
v-127q-55 -15 -112.5 -22.5t-125.5 -7.5q-81 0 -139 21t-104 84q-29 -47 -78.5 -76t-105.5 -29q-73 0 -123.5 44t-50.5 117q0 103 74 147t148 44h99v34zM350 232h-39q-41 0 -71 -12.5t-30 -55.5q0 -25 15.5 -40.5t41.5 -15.5q24 0 46 12t37 31v81z" />
    <glyph glyph-name="oslash" unicode="&#xf8;" horiz-adv-x="675" 
d="M104 76q-35 39 -51.5 89t-16.5 106q0 105 65.5 194t235.5 89q46 0 79.5 -5.5t65.5 -20.5l22 26h141l-74 -88q35 -42 51.5 -89t16.5 -106q0 -105 -66 -194t-236 -89q-40 0 -76.5 5.5t-68.5 19.5l-21 -25h-141zM391 420q-21 26 -54 26q-57 0 -76.5 -59.5t-19.5 -146.5l2 -2
zM283 122q23 -26 54 -26q58 0 77.5 64.5t19.5 141.5l-2 2z" />
    <glyph glyph-name="questiondown" unicode="&#xbf;" horiz-adv-x="572" 
d="M530 -167q-44 -16 -97.5 -24t-104.5 -8q-113 0 -202.5 36t-89.5 132q0 54 30 88.5t80 81t66.5 77.5t16.5 72v37h193q0 -46 -20.5 -77t-65.5 -79.5t-67 -82.5t-22 -74q0 -46 27.5 -68.5t74.5 -22.5q45 0 85.5 12.5t95.5 38.5v-139zM422 398h-193v144h193v-144z" />
    <glyph glyph-name="exclamdown" unicode="&#xa1;" horiz-adv-x="265" 
d="M229 398h-193v144h193v-144zM229 -24v-157h-193v157l36 349h121z" />
    <glyph glyph-name="logicalnot" unicode="&#xac;" 
d="M54 457h579v-336h-108v228h-471v108z" />
    <glyph glyph-name="radical" unicode="&#x221a;" horiz-adv-x="663" 
d="M21 157h621v-157h-621v157zM154 440h355v-133h-355v133zM48 723h567v-157h-567v157z" />
    <glyph glyph-name="florin" unicode="&#x192;" 
d="M214 332h-63v108h84q27 139 102.5 220t230.5 81q26 0 57 -3t47 -4v-120q-32 9 -59.5 14t-52.5 5q-58 0 -81 -31t-35 -97l-12 -65h80v-108h-102l-94 -477h-197z" />
    <glyph glyph-name="approxequal" unicode="&#x2248;" horiz-adv-x="361" 
d="M-100 -67q24 -12 55.5 -21t58.5 -9q36 0 53 22t17 57v560h193v-541q0 -88 -50 -147t-180 -59q-73 0 -147 20v118z" />
    <glyph glyph-name="uni2206" unicode="&#x2206;" horiz-adv-x="795" 
d="M15 157l301 566h181l283 -566v-157h-765v157zM578 157l-207 413l-218 -413h425z" />
    <glyph glyph-name="uni2206" unicode="&#x394;" horiz-adv-x="795" 
d="M15 157l301 566h181l283 -566v-157h-765v157zM578 157l-207 413l-218 -413h425z" />
    <glyph glyph-name="guillemotleft" unicode="&#xab;" horiz-adv-x="614" 
d="M220 357l111 -151l-87 -66l-214 217l214 217l87 -66zM473 357l111 -151l-87 -66l-214 217l214 217l87 -66z" />
    <glyph glyph-name="guillemotright" unicode="&#xbb;" horiz-adv-x="614" 
d="M141 357l-111 151l87 66l214 -217l-214 -217l-87 66zM394 357l-111 151l87 66l214 -217l-214 -217l-87 66z" />
    <glyph glyph-name="ellipsis" unicode="&#x2026;" horiz-adv-x="1000" 
d="M94 144h145v-144h-145v144zM427 144h145v-144h-145v144zM760 144h145v-144h-145v144z" />
    <glyph glyph-name="uni00A0" unicode="&#xa0;" horiz-adv-x="250" 
 />
    <glyph glyph-name="Agrave" unicode="&#xc0;" horiz-adv-x="773" 
d="M290 723h193l277 -723h-194l-70 184h-283l-71 -184h-129zM452 298l-98 256l-98 -256h196zM227 952h150l109 -144h-115z" />
    <glyph glyph-name="Atilde" unicode="&#xc3;" horiz-adv-x="773" 
d="M290 723h193l277 -723h-194l-70 184h-283l-71 -184h-129zM452 298l-98 256l-98 -256h196zM567 952q0 -60 -25 -102t-80 -42q-18 0 -40 6t-33.5 8.5t-32 7.5t-29.5 5q-25 0 -25 -27h-96q0 57 25.5 100.5t79.5 43.5q16 0 37 -5.5t33 -8t34 -8t31 -5.5q25 0 25 27h96z" />
    <glyph glyph-name="Otilde" unicode="&#xd5;" horiz-adv-x="855" 
d="M428 741q179 0 285 -101t106 -279q0 -177 -106 -278t-285 -101t-285.5 100.5t-106.5 278.5t107 279t285 101zM428 102q93 0 139.5 78.5t46.5 180.5q0 101 -46.5 180.5t-139.5 79.5q-94 0 -140.5 -78.5t-46.5 -181.5q0 -101 46 -180t141 -79zM608 952q0 -60 -25 -102
t-80 -42q-18 0 -40 6t-33.5 8.5t-32 7.5t-29.5 5q-25 0 -25 -27h-96q0 57 25.5 100.5t79.5 43.5q16 0 37 -5.5t33 -8t34 -8t31 -5.5q25 0 25 27h96z" />
    <glyph glyph-name="OE" unicode="&#x152;" horiz-adv-x="1102" 
d="M541 0v9q-26 -14 -55 -20.5t-58 -6.5q-179 0 -285.5 100.5t-106.5 278.5t107 279t285 101q27 0 57 -6.5t56 -20.5v9h494v-120h-301v-176h247v-108h-247v-199h325v-120h-518zM541 430q0 95 -18 143t-95 48q-94 0 -140.5 -78.5t-46.5 -181.5q0 -101 46 -180t141 -79
q76 0 94.5 49.5t18.5 141.5v137z" />
    <glyph glyph-name="oe" unicode="&#x153;" horiz-adv-x="990" 
d="M764 325q0 49 -15 85t-56 36q-43 0 -64 -36t-27 -85h162zM608 229q11 -66 52 -93.5t110 -27.5q34 0 70 6.5t105 30.5v-127q-55 -15 -112.5 -22.5t-125.5 -7.5q-52 0 -97.5 14t-93.5 48q-77 -62 -179 -62q-170 0 -235.5 88.5t-65.5 194.5q0 105 65.5 194t235.5 89
q44 0 97.5 -20t94.5 -54q35 34 82 54t96 20q138 0 188 -83.5t50 -241.5h-337zM337 96q52 0 74.5 56.5t22.5 118.5q0 61 -22.5 118t-74.5 57q-51 0 -73.5 -56.5t-22.5 -118.5q0 -61 22.5 -118t73.5 -57z" />
    <glyph glyph-name="endash" unicode="&#x2013;" horiz-adv-x="500" 
d="M0 355h500v-96h-500v96z" />
    <glyph glyph-name="emdash" unicode="&#x2014;" horiz-adv-x="1000" 
d="M0 355h1000v-96h-1000v96z" />
    <glyph glyph-name="quotedblleft" unicode="&#x201c;" horiz-adv-x="530" 
d="M494 626v-193h-193v167q0 72 55.5 121.5t137.5 49.5v-73q-34 0 -53 -16t-19 -48v-8h72zM229 626v-193h-193v167q0 72 55.5 121.5t137.5 49.5v-73q-34 0 -53 -16t-19 -48v-8h72z" />
    <glyph glyph-name="quotedblright" unicode="&#x201d;" horiz-adv-x="530" 
d="M36 578v193h193v-167q0 -72 -55.5 -121.5t-137.5 -49.5v73q34 0 53 16t19 48v8h-72zM301 578v193h193v-167q0 -72 -55.5 -121.5t-137.5 -49.5v73q34 0 53 16t19 48v8h-72z" />
    <glyph glyph-name="quoteleft" unicode="&#x2018;" horiz-adv-x="265" 
d="M229 626v-193h-193v167q0 72 55.5 121.5t137.5 49.5v-73q-34 0 -53 -16t-19 -48v-8h72z" />
    <glyph glyph-name="quoteright" unicode="&#x2019;" horiz-adv-x="265" 
d="M36 578v193h193v-167q0 -72 -55.5 -121.5t-137.5 -49.5v73q34 0 53 16t19 48v8h-72z" />
    <glyph glyph-name="divide" unicode="&#xf7;" 
d="M271 144h145v-144h-145v144zM54 343h579v-108h-579v108zM271 578h145v-144h-145v144z" />
    <glyph glyph-name="lozenge" unicode="&#x25ca;" horiz-adv-x="799" 
d="M434 542q0 44 2 66.5t11 46.5q-35 20 -90 20q-29 0 -48.5 -25.5t-19.5 -58.5v-49h145zM464 696q30 49 78.5 68t113.5 19q47 0 80.5 -4.5t74.5 -16.5v-119q-22 14 -55.5 23t-60.5 9q-29 0 -48.5 -25.5t-19.5 -58.5v-49h139v-108h-139v-434h-193v434h-145v-434h-193v434
h-72v108h72v36q0 94 53 149.5t169 55.5q44 0 75.5 -4.5t70.5 -16.5v-66z" />
    <glyph glyph-name="ydieresis" unicode="&#xff;" horiz-adv-x="645" 
d="M227 0l-214 542h207l125 -316l152 316h134l-353 -735h-199zM172 747h120v-120h-120v120zM377 747h120v-120h-120v120z" />
    <glyph glyph-name="Ydieresis" unicode="&#x178;" horiz-adv-x="738" 
d="M271 304l-244 419h209l167 -286l168 286h140l-247 -419v-304h-193v304zM207 928h120v-120h-120v120zM412 928h120v-120h-120v120z" />
    <glyph glyph-name="fraction" unicode="&#x2044;" horiz-adv-x="93" 
d="M243 741h156l-549 -759h-156z" />
    <glyph glyph-name="Euro" unicode="&#x20ac;" 
d="M80 21l-77 77l154 153q-30 53 -30 110q0 58 30 111l-154 153l77 77l153 -154q51 30 110 30q60 0 110 -30l154 154l77 -77l-154 -153q30 -53 30 -111q0 -57 -30 -110l154 -153l-77 -77l-154 154q-50 -30 -110 -30q-59 0 -110 30zM343 289q29 0 51 21t22 51t-21.5 51.5
t-51.5 21.5t-51 -21t-21 -52q0 -30 21 -51t51 -21z" />
    <glyph glyph-name="guilsinglleft" unicode="&#x2039;" horiz-adv-x="361" 
d="M220 357l111 -151l-87 -66l-214 217l214 217l87 -66z" />
    <glyph glyph-name="guilsinglright" unicode="&#x203a;" horiz-adv-x="361" 
d="M141 357l-111 151l87 66l214 -217l-214 -217l-87 66z" />
    <glyph glyph-name="uniFB01" unicode="&#xfb01;" horiz-adv-x="711" 
d="M289 434v-434h-193v434h-72v108h72v36q0 94 53 149.5t169 55.5q47 0 80.5 -4.5t74.5 -16.5v-119q-22 14 -55.5 23t-60.5 9q-29 0 -48.5 -25.5t-19.5 -58.5v-49h338v-542h-193v434h-145z" />
    <glyph glyph-name="uniFB02" unicode="&#xfb02;" horiz-adv-x="711" 
d="M627 0h-193v663q-19 5 -39.5 8.5t-37.5 3.5q-29 0 -48.5 -25.5t-19.5 -58.5v-49h103v-108h-103v-434h-193v434h-72v108h72v36q0 94 53 149.5t169 55.5l81 -7.5t47 -4.5h181v-771z" />
    <glyph glyph-name="daggerdbl" unicode="&#x2021;" horiz-adv-x="693" 
d="M442 -145h-192l12 229l-175 -12v145l175 -12v168l-175 -12v145l175 -12l-12 229h192l-12 -229l175 12v-145l-175 12v-168l175 12v-145l-175 12z" />
    <glyph glyph-name="periodcentered" unicode="&#xb7;" horiz-adv-x="343" 
d="M99 361h145v-144h-145v144z" />
    <glyph glyph-name="quotesinglbase" unicode="&#x201a;" horiz-adv-x="265" 
d="M36 0v193h193v-167q0 -72 -55.5 -121.5t-137.5 -49.5v73q34 0 53 16t19 48v8h-72z" />
    <glyph glyph-name="quotedblbase" unicode="&#x201e;" horiz-adv-x="530" 
d="M36 0v193h193v-167q0 -72 -55.5 -121.5t-137.5 -49.5v73q34 0 53 16t19 48v8h-72zM301 0v193h193v-167q0 -72 -55.5 -121.5t-137.5 -49.5v73q34 0 53 16t19 48v8h-72z" />
    <glyph glyph-name="perthousand" unicode="&#x2030;" horiz-adv-x="1313" 
d="M500 181q0 86 51 133t139 47q87 0 138.5 -46.5t51.5 -133.5t-51 -134t-139 -47t-139 47t-51 134zM735 181q0 33 -9 58.5t-36 25.5t-36 -25.5t-9 -58.5t9 -59t36 -26q26 0 35.5 26.5t9.5 58.5zM18 543q0 86 51 133t139 47q87 0 138.5 -46.5t51.5 -133.5t-51 -134t-139 -47
t-139 47t-51 134zM253 543q0 33 -9 58.5t-36 25.5t-36 -25.5t-9 -58.5t9 -59t36 -26q26 0 35.5 26.5t9.5 58.5zM672 741h120l-566 -759h-121zM915 181q0 86 51 133t139 47q87 0 138.5 -46.5t51.5 -133.5t-51 -134t-139 -47t-139 47t-51 134zM1150 181q0 33 -9 58.5t-36 25.5
t-36 -25.5t-9 -58.5t9 -59t36 -26q26 0 35.5 26.5t9.5 58.5z" />
    <glyph glyph-name="Acircumflex" unicode="&#xc2;" horiz-adv-x="773" 
d="M290 723h193l277 -723h-194l-70 184h-283l-71 -184h-129zM452 298l-98 256l-98 -256h196zM386 880l-66 -72h-114l108 144h145l108 -144h-114z" />
    <glyph glyph-name="Ecircumflex" unicode="&#xca;" horiz-adv-x="645" 
d="M84 723h494v-120h-301v-176h247v-108h-247v-199h325v-120h-518v723zM322 880l-66 -72h-114l108 144h145l108 -144h-114z" />
    <glyph glyph-name="Aacute" unicode="&#xc1;" horiz-adv-x="773" 
d="M290 723h193l277 -723h-194l-70 184h-283l-71 -184h-129zM452 298l-98 256l-98 -256h196zM396 952h150l-144 -144h-115z" />
    <glyph glyph-name="Edieresis" unicode="&#xcb;" horiz-adv-x="645" 
d="M84 723h494v-120h-301v-176h247v-108h-247v-199h325v-120h-518v723zM160 928h120v-120h-120v120zM365 928h120v-120h-120v120z" />
    <glyph glyph-name="Egrave" unicode="&#xc8;" horiz-adv-x="645" 
d="M84 723h494v-120h-301v-176h247v-108h-247v-199h325v-120h-518v723zM163 952h150l109 -144h-115z" />
    <glyph glyph-name="Iacute" unicode="&#xcd;" horiz-adv-x="361" 
d="M84 723h193v-723h-193v723zM190 952h150l-144 -144h-115z" />
    <glyph glyph-name="Icircumflex" unicode="&#xce;" horiz-adv-x="361" 
d="M84 723h193v-723h-193v723zM180 880l-66 -72h-114l108 144h145l108 -144h-114z" />
    <glyph glyph-name="Idieresis" unicode="&#xcf;" horiz-adv-x="361" 
d="M84 723h193v-723h-193v723zM18 928h120v-120h-120v120zM223 928h120v-120h-120v120z" />
    <glyph glyph-name="Igrave" unicode="&#xcc;" horiz-adv-x="361" 
d="M84 723h193v-723h-193v723zM21 952h150l109 -144h-115z" />
    <glyph glyph-name="Oacute" unicode="&#xd3;" horiz-adv-x="855" 
d="M428 741q179 0 285 -101t106 -279q0 -177 -106 -278t-285 -101t-285.5 100.5t-106.5 278.5t107 279t285 101zM428 102q93 0 139.5 78.5t46.5 180.5q0 101 -46.5 180.5t-139.5 79.5q-94 0 -140.5 -78.5t-46.5 -181.5q0 -101 46 -180t141 -79zM437 952h150l-144 -144h-115z
" />
    <glyph glyph-name="Ocircumflex" unicode="&#xd4;" horiz-adv-x="855" 
d="M428 741q179 0 285 -101t106 -279q0 -177 -106 -278t-285 -101t-285.5 100.5t-106.5 278.5t107 279t285 101zM428 102q93 0 139.5 78.5t46.5 180.5q0 101 -46.5 180.5t-139.5 79.5q-94 0 -140.5 -78.5t-46.5 -181.5q0 -101 46 -180t141 -79zM427 880l-66 -72h-114
l108 144h145l108 -144h-114z" />
    <glyph glyph-name="uniF8FF" unicode="&#xf8ff;" horiz-adv-x="1048" 
d="M434 542q0 44 2 66.5t11 46.5q-35 20 -90 20q-29 0 -48.5 -25.5t-19.5 -58.5v-49h145zM627 434v-434h-193v434h-145v-434h-193v434h-72v108h72v36q0 94 53 149.5t169 55.5q44 0 75.5 -4.5t70.5 -16.5v-66q30 49 78.5 68t113.5 19q47 0 80.5 -4.5t74.5 -16.5v-119
q-22 14 -55.5 23t-60.5 9q-29 0 -48.5 -25.5t-19.5 -58.5v-49h338v-542h-193v434h-145z" />
    <glyph glyph-name="uniF8FF" unicode="&#xe01e;" horiz-adv-x="1048" 
d="M434 542q0 44 2 66.5t11 46.5q-35 20 -90 20q-29 0 -48.5 -25.5t-19.5 -58.5v-49h145zM627 434v-434h-193v434h-145v-434h-193v434h-72v108h72v36q0 94 53 149.5t169 55.5q44 0 75.5 -4.5t70.5 -16.5v-66q30 49 78.5 68t113.5 19q47 0 80.5 -4.5t74.5 -16.5v-119
q-22 14 -55.5 23t-60.5 9q-29 0 -48.5 -25.5t-19.5 -58.5v-49h338v-542h-193v434h-145z" />
    <glyph glyph-name="Ograve" unicode="&#xd2;" horiz-adv-x="855" 
d="M428 741q179 0 285 -101t106 -279q0 -177 -106 -278t-285 -101t-285.5 100.5t-106.5 278.5t107 279t285 101zM428 102q93 0 139.5 78.5t46.5 180.5q0 101 -46.5 180.5t-139.5 79.5q-94 0 -140.5 -78.5t-46.5 -181.5q0 -101 46 -180t141 -79zM268 952h150l109 -144h-115z
" />
    <glyph glyph-name="Uacute" unicode="&#xda;" horiz-adv-x="783" 
d="M277 723v-419q0 -107 27.5 -154.5t99.5 -47.5q65 0 96 42.5t31 141.5v437h168v-459q0 -140 -75 -211t-224 -71q-143 0 -229.5 69.5t-86.5 212.5v459h193zM401 952h150l-144 -144h-115z" />
    <glyph glyph-name="Ucircumflex" unicode="&#xdb;" horiz-adv-x="783" 
d="M277 723v-419q0 -107 27.5 -154.5t99.5 -47.5q65 0 96 42.5t31 141.5v437h168v-459q0 -140 -75 -211t-224 -71q-143 0 -229.5 69.5t-86.5 212.5v459h193zM391 880l-66 -72h-114l108 144h145l108 -144h-114z" />
    <glyph glyph-name="Ugrave" unicode="&#xd9;" horiz-adv-x="783" 
d="M277 723v-419q0 -107 27.5 -154.5t99.5 -47.5q65 0 96 42.5t31 141.5v437h168v-459q0 -140 -75 -211t-224 -71q-143 0 -229.5 69.5t-86.5 212.5v459h193zM232 952h150l109 -144h-115z" />
    <glyph glyph-name="dotlessi" unicode="&#x131;" horiz-adv-x="361" 
d="M84 542h193v-542h-193v542z" />
    <glyph glyph-name="circumflex" unicode="&#x2c6;" horiz-adv-x="675" 
d="M337 699l-66 -72h-114l108 144h145l108 -144h-114z" />
    <glyph glyph-name="tilde" unicode="&#x2dc;" horiz-adv-x="675" 
d="M518 771q0 -60 -25 -102t-80 -42q-18 0 -40 6t-33.5 8.5t-32 7.5t-29.5 5q-25 0 -25 -27h-96q0 57 25.5 100.5t79.5 43.5q16 0 37 -5.5t33 -8t34 -8t31 -5.5q25 0 25 27h96z" />
    <glyph glyph-name="macron" unicode="&#xaf;" horiz-adv-x="675" 
d="M175 735h325v-108h-325v108z" />
    <glyph glyph-name="breve" unicode="&#x2d8;" horiz-adv-x="675" 
d="M253 771q10 -20 35 -29.5t50 -9.5q27 0 51 9t33 30h96q-10 -65 -60.5 -104.5t-120.5 -39.5q-66 0 -117.5 39t-62.5 105h96z" />
    <glyph glyph-name="dotaccent" unicode="&#x2d9;" horiz-adv-x="675" 
d="M265 771h145v-144h-145v144z" />
    <glyph glyph-name="ring" unicode="&#x2da;" horiz-adv-x="675" 
d="M337 783q33 0 56 -23t23 -55t-23 -55t-56 -23q-32 0 -55 23t-23 55t23 55t55 23zM337 675q13 0 22 8t9 22q0 12 -9 21t-22 9t-21.5 -8.5t-8.5 -21.5q0 -12 9 -21t21 -9z" />
    <glyph glyph-name="cedilla" unicode="&#xb8;" horiz-adv-x="675" 
d="M248 -128q10 -3 22 -5t22 -2q17 0 29.5 5t12.5 21q0 19 -20.5 28.5t-44.5 11.5l55 69h76l-41 -58q33 -5 58 -21.5t25 -45.5q0 -34 -33.5 -51t-71.5 -17q-44 0 -89 14v51z" />
    <glyph glyph-name="hungarumlaut" unicode="&#x2dd;" horiz-adv-x="675" 
d="M301 771h112l-129 -144h-86zM463 771h112l-129 -144h-86z" />
    <glyph glyph-name="ogonek" unicode="&#x2db;" horiz-adv-x="675" 
d="M390 0q-16 -16 -28 -32t-12 -29q0 -10 10 -20t30 -10q12 0 17.5 1.5t34.5 12.5v-54q-21 -7 -43.5 -12.5t-47.5 -5.5q-42 0 -75.5 17t-33.5 51q0 23 23 43.5t55 37.5h70z" />
    <glyph glyph-name="caron" unicode="&#x2c7;" horiz-adv-x="675" 
d="M157 771h114l66 -72l67 72h114l-108 -144h-145z" />
    <glyph glyph-name="glyph226" horiz-adv-x="620" 
d="M84 261l-96 -54v124l96 53v339h193v-234l96 51v-123l-96 -52v-245h325v-120h-518v261z" />
    <glyph glyph-name="glyph227" horiz-adv-x="361" 
d="M84 286l-96 -51v124l96 52v360h193v-258l96 53v-122l-96 -52v-392h-193v286z" />
    <glyph glyph-name="glyph228" horiz-adv-x="594" 
d="M48 145q51 -20 99 -31.5t97 -11.5q48 0 84 17.5t36 61.5q0 46 -108.5 109t-161 106.5t-52.5 141.5q0 101 75.5 152t181.5 51q52 0 103.5 -5.5t111.5 -16.5v-137q-48 17 -95.5 28t-89.5 11q-35 0 -64.5 -15t-29.5 -47q0 -42 109 -101.5t167 -107.5t58 -150
q0 -81 -63 -149.5t-233 -68.5q-52 0 -106.5 3.5t-118.5 14.5v145zM117 952h114l66 -72l67 72h114l-108 -144h-145z" />
    <glyph glyph-name="glyph229" horiz-adv-x="622" 
d="M66 139q56 -20 105 -31.5t97 -11.5q35 0 59 8.5t24 35.5q0 29 -90.5 64t-142 69t-51.5 112q0 66 55.5 117.5t200.5 51.5q93 0 185 -21v-123q-41 16 -82 26t-78 10q-36 0 -62 -8.5t-26 -35.5t94.5 -59.5t148 -64.5t53.5 -108q0 -73 -61.5 -127.5t-200.5 -54.5
q-119 0 -228 28v123zM131 771h114l66 -72l67 72h114l-108 -144h-145z" />
    <glyph glyph-name="glyph230" horiz-adv-x="675" 
d="M54 120l334 483h-316v120h536v-120l-334 -483h334v-120h-554v120zM157 952h114l66 -72l67 72h114l-108 -144h-145z" />
    <glyph glyph-name="glyph231" horiz-adv-x="608" 
d="M60 120l271 314h-259v108h482v-108l-271 -314h277v-120h-500v120zM139 771h114l66 -72l67 72h114l-108 -144h-145z" />
    <glyph glyph-name="glyph232" horiz-adv-x="265" 
d="M78 217h108v-362h-108v362zM78 771h108v-361h-108v361z" />
    <glyph glyph-name="glyph233" horiz-adv-x="819" 
d="M84 319h-106v108h106v296h394q108 0 206.5 -79t98.5 -270q0 -182 -96 -278t-244 -96h-359v319zM277 427h145v-108h-145v-192q27 -3 48.5 -5t44.5 -2q114 0 161 70.5t47 176.5q0 97 -43.5 166.5t-159.5 69.5h-98v-176z" />
    <glyph glyph-name="glyph234" horiz-adv-x="675" 
d="M244 265q0 -61 23.5 -115t76.5 -54q52 0 76 54.5t24 114.5q0 54 -24.5 99t-75.5 45t-75.5 -44.5t-24.5 -99.5zM138 497l-67 69l94 91q-29 0 -77.5 3t-50.5 3v108q62 0 122 -4.5t103 -13.5l132 127l68 -70l-97 -94q119 -49 195.5 -167.5t76.5 -249.5q0 -123 -76.5 -217
t-229.5 -94q-148 0 -220 81t-72 185q0 95 67 179t201 84q14 0 30 -1.5t36 -5.5q-13 36 -40 60.5t-70 47.5z" />
    <glyph glyph-name="glyph235" horiz-adv-x="738" 
d="M271 304l-244 419h209l167 -286l168 286h140l-247 -419v-304h-193v304zM379 952h150l-144 -144h-115z" />
    <glyph glyph-name="glyph236" horiz-adv-x="645" 
d="M227 0l-214 542h207l125 -316l152 316h134l-353 -735h-199zM347 771h150l-144 -144h-115z" />
    <glyph glyph-name="glyph237" horiz-adv-x="657" 
d="M84 723h181v-133h142q107 0 161.5 -45t54.5 -148q0 -111 -66.5 -180.5t-185.5 -69.5h-106v-147h-181v723zM265 255q72 0 118.5 24t46.5 103q0 46 -29.5 67t-78.5 21h-57v-215z" />
    <glyph glyph-name="glyph238" horiz-adv-x="696" 
d="M84 687h193v-145l-12 -102h12q23 54 68 84t104 30q109 0 160 -78t51 -192q0 -124 -56.5 -210t-174.5 -86q-47 0 -77.5 13.5t-74.5 46.5h-12l12 -48v-193h-193v880zM277 154q15 -23 36 -37.5t47 -14.5q49 0 72 55t23 112q0 54 -19 97.5t-67 43.5q-31 0 -53 -21t-39 -55
v-180z" />
    <glyph glyph-name="glyph239" 
d="M54 343h579v-108h-579v108z" />
    <glyph glyph-name="glyph240" 
d="M267 289l-213 213l77 76l212 -212l213 212l77 -76l-213 -213l213 -212l-77 -77l-213 212l-212 -212l-77 77z" />
    <glyph glyph-name="glyph241" horiz-adv-x="536" 
d="M184 627h-73v96l241 18v-380h-168v266z" />
    <glyph glyph-name="glyph242" horiz-adv-x="536" 
d="M70 445q72 41 145 82q70 45 70 85q0 26 -23.5 35.5t-53.5 9.5q-73 0 -139 -27v87q44 13 88.5 18.5t98.5 5.5q101 0 149 -31.5t48 -80.5q0 -55 -69 -97.5t-139 -83.5l217 -3v-84h-392v84z" />
    <glyph glyph-name="glyph243" horiz-adv-x="536" 
d="M85 458q42 -10 84.5 -17.5t77.5 -7.5q22 0 41.5 7t19.5 26t-22 28t-83 9h-67v78h77h12q30 0 49 7.5t19 34.5q0 20 -18.5 27t-41.5 7q-33 0 -63 -4t-85 -20v84q38 12 84.5 18t88.5 6q77 0 140 -21t63 -70q0 -52 -40.5 -69t-83.5 -28q57 -10 98 -32t41 -68q0 -61 -70 -82.5
t-150 -21.5q-37 0 -83 5.5t-88 11.5v92z" />
    <glyph glyph-name="glyph244" horiz-adv-x="1066" 
d="M120 627h-73v96l241 18v-380h-168v266zM682 741h156l-549 -759h-156zM639 83q72 41 145 82q70 45 70 85q0 26 -23.5 35.5t-53.5 9.5q-73 0 -139 -27v87q44 13 88.5 18.5t98.5 5.5q101 0 149 -31.5t48 -80.5q0 -55 -69 -97.5t-139 -83.5l217 -3v-84h-392v84z" />
    <glyph glyph-name="glyph245" horiz-adv-x="1066" 
d="M136 627h-73v96l241 18v-380h-168v266zM697 741h156l-549 -759h-156zM949 0h-150v108h-217v84l195 175h172v-175h51v-84h-51v-108zM799 192v97l-109 -97h109z" />
    <glyph glyph-name="glyph246" horiz-adv-x="1120" 
d="M763 741h156l-549 -759h-156zM1003 0h-150v108h-217v84l195 175h172v-175h51v-84h-51v-108zM853 192v97l-109 -97h109zM69 458q42 -10 84.5 -17.5t77.5 -7.5q22 0 41.5 7t19.5 26t-22 28t-83 9h-67v78h77h12q30 0 49 7.5t19 34.5q0 20 -18.5 27t-41.5 7q-33 0 -63 -4
t-85 -20v84q38 12 84.5 18t88.5 6q77 0 140 -21t63 -70q0 -52 -40.5 -69t-83.5 -28q57 -10 98 -32t41 -68q0 -61 -70 -82.5t-150 -21.5q-37 0 -83 5.5t-88 11.5v92z" />
  </font>
</defs>
</svg>
